<ttFont>
          <CharString index="0">
            -142.986419678 -107.703613281 -100.013580322 -138.296386719 -138.336532593 -105.663467407 100.009780884 142.990219116 142.956787109 105.692672729 100.043212891 138.307327271 138.325973511 107.674026489 -99.9803009033 -143.019699097 vhcurveto
            return
          </CharString>
          <CharString index="1">
            63.3333282471 55 31.6666717529 75.3333282471 0 95.6666717529 0 95.6666717529 -31.5 74.8333282471 -63 54 -63 54 -75.1666717529 27 -87.3333282471 0 -86 0 -74.5 -26.8333282471 -63 -53.6666717529 -63 -53.6666717529 -31.5 -75 0 -96.3333282471 0 -96.3333282471 31.5 -75.5 63 -54.6666717529 rrcurveto
            63 -54.6666717529 74.5 -27.3333282471 86 0 86.6666717529 0 75 27.5 63.3333282471 55 rrcurveto
            return
          </CharString>
          <CharString index="2">
            -126 -120 62 hlineto
            0 -86.0727844238 -6.37463378906 -25.3020935059 -64.6253662109 -20.6251220703 rrcurveto
            -44 vlineto
            90 45 58 116 hvcurveto
            return
          </CharString>
          <CharString index="3">
            -116 -120 116 hlineto
            return
          </CharString>
          <CharString index="4">
            -372 -1278 75 0 368 1278 rlineto
            return
          </CharString>
          <CharString index="5">
            -117 -120 117 hlineto
            return
          </CharString>
          <CharString index="6">
            -126 -120 61 hlineto
            0 -86.9571075439 -6.01608276367 -24.3033447266 -64.9839172363 -20.7395477295 rrcurveto
            -45 vlineto
            90.6666717529 45.3333282471 58 116 hvcurveto
            return
          </CharString>
          <CharString index="7">
            -451 -63 158 hlineto
            -416 -1109 -159 0 0 -62 404 0 0 62 -159 0 160 441 475 0 160 -441 -159 0 0 -62 403 0 0 62 -158 0 -415 1109 rlineto
            157 hlineto
            return
          </CharString>
          <CharString index="8">
            216 589 215 -589 rlineto
            return
          </CharString>
          <CharString index="9">
            664 -306 76 376 -997 -70 175 -1094 -175 -70 1019 376 -77 -306 -685 hlineto
            526 433 -172 67 400 -67 -158 -433 vlineto
            return
          </CharString>
          <CharString index="10">
            -403 -63 161 -1109 -161 -62 403 62 -160 1109 160 hlineto
            return
          </CharString>
          <CharString index="11">
            -84 -60 71 hlineto
            17.3333282471 0 18.6666717529 0.66667175293 20 1.33332824707 76 5.33332824707 37.6666717529 53 -0.66667175293 100.666671753 rrcurveto
            1114 139 60 -360 -60 139 -1115 vlineto
            -59.7712097168 -8.8106842041 -40.2287902832 -65.1893157959 vhcurveto
            return
          </CharString>
          <CharString index="12">
            -360 -60 139 -1104 -139 -70 925 412 -76 -342 -628 1104 139 hlineto
            return
          </CharString>
          <CharString index="13">
            -240 -63 161 -1109 -161 -62 401 62 -161 1052 hlineto
            844 -1114 79 0 0 1171 161 0 0 63 -401 0 0 -63 161 0 0 -1046 rlineto
            return
          </CharString>
          <CharString index="14">
            117 0 100.833328247 -27 84.6666717529 -54 170 -108 85 -175 0 -242 0 -72 -20.6666717529 -78 -41.3333282471 -84 -98.6666717529 -196 -164.666656494 -98 -230.666671753 0 -176.666671753 0 -136.833328247 55.5 -97 111 -97 111 -48.5 139.5 0 168 rrcurveto
            0 84.6666717529 21.1666717529 85.6666564941 42.3333282471 86.6666717529 80.717590332 165.24861145 168.551193237 126.75138855 241.731216431 0 rrcurveto
            return
          </CharString>
          <CharString index="15">
            -1087 -392 76 322 423 -1104 -175 -60 432 60 -176 1104 430 -322 77 hlineto
            return
          </CharString>
          <CharString index="16">
            158 0 442 -735 0 -374 -161 0 0 -62 403 0 0 62 -160 0 0 374 439 735 156 0 0 63 -403 0 0 -63 159 0 rlineto
            -390 -663 -397 663 157 0 0 63 -403 0 rlineto
            return
          </CharString>
          <CharString index="17">
            883 1083 0 81 -947 0 0 -364 77 0 0 294 781 0 -877 -1068 0 -96 1002 0 0 376 -77 0 0 -306 rlineto
            return
          </CharString>
          <CharString index="18">
            31 0 -61 249 -127 0 rlineto
            return
          </CharString>
          <CharString index="19">
            0 -74 -31 -74.3333282471 -62 -74.6666717529 -62 -74.6666717529 -89.8333282471 -37.3333282471 -117.666671753 0 -117.666671753 0 -118.833328247 46.6666717529 -120 93.3333282471 rrcurveto
            426 vlineto
            110 112 114.666671753 56 119.333328247 0 244.767272949 0 130.232727051 -150.288726807 0 -248.711273193 rrcurveto
            return
          </CharString>
          <CharString index="20">
            36.3977661133 27.1022338867 23.8080596924 33.1919403076 33.4562530518 -26.1251373291 22.5437469482 -36.8748626709 -41.3333282471 -20.6666717529 -19 -38 -32.4744567871 25.4557800293 -23.5255432129 36.0442199707 hvcurveto
            return
          </CharString>
          <CharString index="21">
            150 -716 -150 -60 383 60 -154 776 -229 hlineto
            return
          </CharString>
          <CharString index="22">
            -813 vlineto
            0 -68.6666717529 -7.16667175293 -46.6666564941 -14.3333282471 -24.6666717529 -14.3333282471 -24.6666717529 -38.5 -12.3333282471 -62.6666717529 0 rrcurveto
            -78 -60 80 hlineto
            94.6666717529 0 63.6666564941 28.3333282471 32.6666717529 56.6666717529 16 27.3333282471 7.66667175293 54.6666717529 -0.66667175293 82 rrcurveto
            858 -216 -57 vlineto
            return
          </CharString>
          <CharString index="23">
            35.9216918945 26.5783081055 23.6085968018 32.3914031982 38 -20.6666717529 19 -41.3333282471 -41.3333282471 -20.6666717529 -19 -38 -32.4744567871 25.4557800293 -23.5255432129 36.0442199707 hvcurveto
            return
          </CharString>
          <CharString index="24">
            186 -1114 -186 -60 449 60 -184 371 hlineto
            430 -371 -123 0 0 -60 383 0 0 60 -151 0 -446 379 403 337 159 0 0 60 -385 0 0 -60 124 0 -394 -322 0 780 rlineto
            -265 hlineto
            return
          </CharString>
          <CharString index="25">
            186 -1114 -186 -60 449 60 -184 1174 -265 hlineto
            return
          </CharString>
          <CharString index="26">
            677 277 -69 -219 -518 hlineto
            569 706 0 72 -623 0 0 -253 69 0 0 193 471 0 -576 -709 rlineto
            return
          </CharString>
          <CharString index="27">
            100.333328247 116.666671753 139.333343506 58.3333282471 178.333328247 0 178.333328247 0 140 -58.3333282471 101.666671753 -116.666671753 101.666671753 -116.666671753 50.8333282471 -135.666656494 0 -154.666671753 0 -157.333328247 -50.8333282471 -136.5 -101.666671753 -115.666671753 -101.666671753 -115.666671753 -140.666656494 -57.8333282471 -179.666671753 0 -179.666671753 0 -139.333328247 56.8333282471 -99 113.666671753 rrcurveto
            -99 113.666671753 -49.5 135.833328247 0 158 0 158 50.1666717529 137.333328247 100.333328247 116.666671753 rrcurveto
            return
          </CharString>
          <CharString index="28">
            203.333328247 0 157.833343506 63.5 112.333328247 127 112.333328247 127 56.1666717529 149.5 0 172 0 110.666671753 -24 103 -48 95.3333282471 -110.666671753 222 -190 111 -269.333328247 0 -202.666671753 0 -157.666656494 -64.1666717529 -112.666671753 -128.333328247 -112.666671753 -128.333328247 -56.3333282471 -149.833343506 0 -171.333328247 rrcurveto
            0 -110 24 -102.666671753 48 -95.3333282471 110.666671753 -220.666671753 190 -110.333328247 269.333328247 0 rrcurveto
            return
          </CharString>
          <CharString index="29">
            -272 -379 272 -383 48 0 -212 383 212 379 rlineto
            return
          </CharString>
          <CharString index="30">
            31 0 154 249 -126 0 rlineto
            return
          </CharString>
          <CharString index="31">
            -117 808 hlineto
            -195 -37 17 -65 104 20 0 -726 -121 0 0 -61 312 0 rlineto
            return
          </CharString>
          <CharString index="32">
            -272 379 -48 0 212 -379 -212 -383 48 0 rlineto
            return
          </CharString>
          <CharString index="33">
            9 -56 348 0 0 -199 -112 0 0 -61 297 0 0 61 -112 0 0 199 178 0 0 63 -178 0 0 543 -92 0 rlineto
            return
          </CharString>
          <CharString index="34">
            -267 hlineto
            90.0132141113 154.500289917 85.6320953369 137.346252441 91.3546905518 153.153457642 rrcurveto
            return
          </CharString>
          <CharString index="35">
            82 0 105 224 104 -224 89 0 -146 273 -95 0 rlineto
            return
          </CharString>
          <CharString index="36">
            -72.6669921875 0 -41.3330078125 -43 -10 -86 rrcurveto
            38 hlineto
            8 27.3330078125 16.1669921875 13.6669921875 24.3330078125 0 24.3330078125 0 40.833984375 -7.8330078125 57.3330078125 -15.6669921875 57.3330078125 -15.6669921875 43.6669921875 -7.8330078125 30 0 72.6669921875 0 41.3330078125 43.6669921875 10 87.3330078125 rrcurveto
            -37 hlineto
            -10 -28.6669921875 -19.3330078125 -14.3330078125 -28.6669921875 0 -48.869140625 0 -147.5625 47 -48.568359375 0 rrcurveto
            return
          </CharString>
          <CharString index="37">
            -69.6962890625 -49.0439453125 -56.8037109375 -72.4560546875 -65.4453125 -58.0546875 53.4072265625 59.5927734375 92.6669921875 45.6669921875 46.3330078125 91.3330078125 60.875 47.125 -63.3525390625 -62.1474609375 vhcurveto
            return
          </CharString>
          <CharString index="38">
            -108.322265625 -62.677734375 -76.681640625 -94.318359375 hvcurveto
            0 -109.041015625 73.8251953125 -61.76171875 97.1748046875 0.802734375 107.764648438 2.5654296875 62.2353515625 70.7763671875 0 96.658203125 rrcurveto
            108.71875 -73.669921875 62.28125 -96.330078125 vhcurveto
            return
          </CharString>
          <CharString index="39">
            0 16 -10.5 17.3330078125 -21 18.6669921875 -21 18.6669921875 -30.8330078125 9.3330078125 -40.6669921875 0 rrcurveto
            -12 0 39 114 -50 0 -58 -150 rlineto
            67.3330078125 -6 33.6669921875 -14.8330078125 0 -23.6669921875 0 -23.6669921875 -14.1669921875 -11.8330078125 -28.3330078125 0 -28.3330078125 0 -29.833984375 4.6669921875 -31.3330078125 9.3330078125 rrcurveto
            -46 vlineto
            34.6669921875 -13.3330078125 33.666015625 -6.6669921875 32.6669921875 0 90 0 45 29.3330078125 0 58.6669921875 rrcurveto
            return
          </CharString>
          <CharString index="40">
            117 0 100.833007812 -27 84.6669921875 -54 170 -108 85 -175 0 -242 0 -72 -20.6669921875 -78 -41.3330078125 -84 -98.6669921875 -196 -164.666015625 -98 -230.666992188 0 -176.666992188 0 -136.833007812 55.5 -97 111 -97 111 -48.5 139.5 0 168 rrcurveto
            0 84.6669921875 21.1669921875 85.666015625 42.3330078125 86.6669921875 80.7177734375 165.249023438 168.55078125 126.750976562 241.731445312 0 rrcurveto
            return
          </CharString>
          <CharString index="41">
            202 0 157.166992188 62.8330078125 112.333007812 125.666992188 112.333007812 125.666992188 56.1669921875 156.833007812 0 188 0 95.3330078125 -24 95.333984375 -48 95.3330078125 -110.666992188 222 -189.333007812 111 -268 0 -202 0 -157.166992188 -64 -112.333007812 -128 -112.333007812 -128 -56.1669921875 -150.166992188 0 -172.333007812 rrcurveto
            0 -172.333007812 56.1669921875 -149 112.333007812 -125.666992188 112.333007812 -125.666992188 157.166992188 -62.8330078125 202 0 rrcurveto
            return
          </CharString>
          <CharString index="42">
            -765 vlineto
            0 -59.3330078125 -13.3330078125 -52 -26.6669921875 -44.6669921875 -80.6669921875 -134.666992188 -140.666015625 -67.3330078125 -200.666992188 0 -118 0 -102.166992188 31.1669921875 -86.3330078125 62.3330078125 -86.3330078125 62.3330078125 -43.1669921875 88.1669921875 0 114 rrcurveto
            765 161 63 -403 -63 161 -767 vlineto
            0 -135.333007812 51.3330078125 -105 102.666992188 -74.6669921875 102.666992188 -74.6669921875 123 -37.3330078125 143.333007812 0 143.333007812 0 125.5 37.6669921875 107.666992188 75.3330078125 107.666992188 75.3330078125 53.8330078125 104.666992188 0 134 rrcurveto
            767 160 63 -403 -63 vlineto
            return
          </CharString>
          <CharString index="43">
            122.333007812 0 110.833984375 36.3330078125 99.3330078125 72.6669921875 rrcurveto
            16 -95 217 0 0 60 -153 0 0 533 rlineto
            0 26.6669921875 -4.3330078125 28.666015625 -8.6669921875 30.6669921875 -32.6669921875 116.666992188 -94.5 58.3330078125 -156.333007812 0 -156.333007812 0 -112.5 -33 -68.6669921875 -66 rrcurveto
            36 -59 rlineto
            60 60.6669921875 93.3330078125 30.3330078125 126.666992188 0 rrcurveto
            158.666992188 79.3330078125 -70.6669921875 -141.333007812 hvcurveto
            -129 vlineto
            -98 19.3330078125 -91 9.6669921875 -84 0 -214 -0.6669921875 -107 -75.666015625 0 -150.666992188 0 -171.47265625 104.446289062 -90.52734375 157.053710938 0 rrcurveto
            return
          </CharString>
          <CharString index="44">
            146.451171875 106.12109375 32.048828125 162.87890625 vhcurveto
            76 0 81.3330078125 -8.6669921875 86.6669921875 -17.3330078125 rrcurveto
            -226 vlineto
            -76 -70 -99.3330078125 -35 -122.666992188 0 rrcurveto
            -130.916992188 -84.0830078125 66.025390625 112.474609375 hvcurveto
            return
          </CharString>
          <CharString index="45">
            -33 55 rlineto
            -96 -101.333007812 -115.333007812 -50.6669921875 -134.666992188 0 -44 0 -42 7.3330078125 -40 14.6669921875 -137.333007812 50 -74.333984375 108.666992188 -11.3330078125 167.333007812 rrcurveto
            751 hlineto
            0 128 -34.8330078125 107.666992188 -69.6669921875 87.3330078125 -69.6669921875 87.3330078125 -99.3330078125 43.6669921875 -129 0 -129 0 -104 -43 -79 -86 -79 -86 -39.5 -103.5 0 -121 0 -121 41.6669921875 -101.666992188 83.3330078125 -82.3330078125 83.3330078125 -82.3330078125 106.333984375 -41.1669921875 129.333007812 0 rrcurveto
            129.333007812 0 122 54.3330078125 114.666992188 108.666992188 rrcurveto
            return
          </CharString>
          <CharString index="46">
            -671 hlineto
            4.6669921875 86 34.3330078125 75 64 64 64 64 84 32 104 0 52 0 44.3330078125 -9 36.6669921875 -18 108 -53.3330078125 61 -98 14 -142.666992188 rrcurveto
            return
          </CharString>
          <CharString index="47">
            -541 -157 -60 411 60 -175 557 vlineto
            154.181640625 -93.4296875 82.818359375 -146.5703125 vhcurveto
            -121.333007812 0 -120.333984375 -39.3330078125 -119.333007812 -78.6669921875 rrcurveto
            -8 100 -248 0 0 -57 180 0 0 -719 -181 0 0 -60 443 0 0 60 -182 0 0 608 rlineto
            113.333007812 79.3330078125 112.333984375 39.6669921875 111.333007812 0 124.4921875 -2.22265625 55.546875 -54.03125 0.9609375 -129.74609375 rrcurveto
            return
          </CharString>
          <CharString index="48">
            74.3330078125 -64.3330078125 37.1669921875 -89.5 0 -114.666992188 0 -114.666992188 -37 -90.166015625 -74 -65.6669921875 -74 -65.6669921875 -87 -32.8330078125 -100 0 -100 0 -86.3330078125 32.8330078125 -72.6669921875 65.6669921875 -72.6669921875 65.6669921875 -36.3330078125 90 0 114.333007812 0 114.333007812 36.5 89.5 73 64.6669921875 rrcurveto
            73 64.6669921875 86.1669921875 32.3330078125 99.3330078125 0 99.3330078125 0 86.833984375 -32.1669921875 74.3330078125 -64.3330078125 rrcurveto
            return
          </CharString>
          <CharString index="49">
            90 77.3330078125 45 106.666992188 0 136 0 136 -45 106 -90 76 -90 76 -106 38 -122 0 -122 0 -105.333007812 -38 -88.6669921875 -76 -88.6669921875 -76 -44.3330078125 -105.833007812 0 -135.666992188 0 -135.666992188 44.5 -106.666015625 89 -77.6669921875 rrcurveto
            89 -77.6669921875 105.333007812 -38.8330078125 121.666992188 0 121.666992188 0 105.833007812 38.6669921875 90 77.3330078125 rrcurveto
            return
          </CharString>
          <CharString index="50">
            597 -254 -60 175 -553 vlineto
            -125.975585938 91.7861328125 -111.024414062 125.213867188 vhcurveto
            62 0 53.5 4.3330078125 45 8.6669921875 45 8.6669921875 73.8330078125 35 102.666992188 61.3330078125 rrcurveto
            8 -104 240 0 0 58 -173 0 0 778 -253 0 0 -60 174 0 0 -603 rlineto
            -126.666992188 -80 -108.333007812 -40 -90 0 -129.795898438 2.1279296875 -61.2041015625 50.95703125 0 132.915039062 rrcurveto
            return
          </CharString>
          <CharString index="51">
            -68 vlineto
            44.6669921875 0 41.666015625 0.6669921875 38.6669921875 1.3330078125 124 4 82 48.3330078125 40 92.6669921875 rrcurveto
            374 903 159 0 0 60 -393 0 0 -60 143 0 -276 -687 -299 687 148 0 0 60 -399 0 0 -60 164 0 320 -718 56 0 rlineto
            -70 -162 rlineto
            -21.3330078125 -48 -31.1669921875 -29 -41 -10 -41 -10 -68.1669921875 -5 -95.3330078125 0 rrcurveto
            return
          </CharString>
          <CharString index="52">
            -126 -120 62 hlineto
            0 -86.0732421875 -6.375 -25.3017578125 -64.625 -20.625 rrcurveto
            -44 vlineto
            90 45 58 116 hvcurveto
            return
          </CharString>
          <CharString index="53">
            -62 404 62 -170 515 308 vlineto
            342 -577 232 0 0 62 -174 0 -316 515 1 0 rlineto
            114 0 88.8330078125 33 63.6669921875 66 63.6669921875 66 31.8330078125 77 0 88 0 88 -31.8330078125 76.5 -63.6669921875 65 -63.6669921875 65 -88.8330078125 32.5 -114 0 rrcurveto
            -640 -63 166 -1109 hlineto
            return
          </CharString>
          <CharString index="54">
            -393 529 393 hlineto
            89.3330078125 0 69.5 -26.1669921875 49.6669921875 -52.3330078125 49.6669921875 -52.3330078125 24.8330078125 -52.6669921875 0 -53 rrcurveto
            -193.534179688 -106.134765625 -98.9658203125 -176.865234375 vhcurveto
            return
          </CharString>
          <CharString index="55">
            57.6669921875 0 56.8330078125 -13.6669921875 56 -27.3330078125 rrcurveto
            12 68 rlineto
            -59.3330078125 26.6669921875 -56.5 13.3330078125 -53.6669921875 0 -122.670898438 0 -72.4833984375 -97.6884765625 -28.345703125 -104.311523438 rrcurveto
            -12 184 -250 0 0 -57 183 0 0 -719 -184 0 0 -60 446 0 0 60 -183 0 0 408 rlineto
            159.661132812 68.9208984375 159.338867188 141.579101562 vhcurveto
            return
          </CharString>
          <CharString index="56">
            -82 0 139 -273 95 0 146 273 -89 0 -104 -224 rlineto
            return
          </CharString>
          <CharString index="57">
            120.666992188 0 111.333007812 -34 102 -68 rrcurveto
            -181 79 335 -79 -71 vlineto
            -116 61.3330078125 -115.5 30.6669921875 -115 0 -115 0 -97 -29 -79 -58 -79 -58 -39.5 -83.3330078125 0 -108.666992188 0 -108.666992188 35.1669921875 -77.666015625 70.3330078125 -46.6669921875 70.3330078125 -46.6669921875 105.5 -30.3330078125 140.666992188 -14 140.666992188 -14 101 -25.5 61.3330078125 -37 rrcurveto
            61.3330078125 -37 30.6669921875 -61.5 0 -86 0 -43.3330078125 -6.6669921875 -37.6669921875 -13.3330078125 -32 -48 -112 -97.6669921875 -56 -147.333007812 0 -147.333007812 0 -138.666992188 48 -130 96 rrcurveto
            220 -79 -416 79 112 vlineto
            128.666992188 -90 134.833007812 -45 141 0 141 0 104.166992188 36.1669921875 67.3330078125 72.3330078125 67.3330078125 72.3330078125 33.6669921875 87 0 101.666992188 0 101.666992188 -40 75.3330078125 -80 49 -80 49 -106.833007812 31.1669921875 -133.666992188 13.3330078125 -133.666992188 13.3330078125 -95.8330078125 21.833984375 -58 30.3330078125 rrcurveto
            -58 30.3330078125 -29 57.5 0 84.6669921875 0 185.333007812 110.333007812 92.6669921875 220.666992188 0 rrcurveto
            return
          </CharString>
          <CharString index="58">
            0 79 -26.1669921875 55.8330078125 -52.3330078125 32.6669921875 -52.3330078125 32.6669921875 -76.333984375 23.5 -100.333007812 14.3330078125 -100.333007812 14.3330078125 -65.1669921875 12.833984375 -30 11.3330078125 -62 22.6669921875 -31 38.666015625 0 54.6669921875 0 30.6669921875 6.6669921875 25.3330078125 13.3330078125 20 39.3330078125 60 72.333984375 30 105.333007812 0 rrcurveto
            105.333007812 0 77.333984375 -30.3330078125 49.3330078125 -60.6669921875 rrcurveto
            -123 70 264 -70 -60 vlineto
            -57.3330078125 51.3330078125 -84.6669921875 25.6669921875 -112 0 -37.3330078125 0.6669921875 -36.6669921875 -4.333984375 -36 -9.3330078125 -125.333007812 -32 -62.333984375 -73.3330078125 0.6669921875 -114.666992188 0 -76 30 -53 60 -30 60 -30 99.6669921875 -22.8330078125 139.333007812 -15.6669921875 139.333007812 -15.6669921875 69.6669921875 -49.8330078125 0 -84 rrcurveto
            0 -42 -7 -31.6669921875 -14 -21.3330078125 -42 -62.6669921875 -86.6669921875 -31.5 -131.333007812 -0.3330078125 -131.333007812 -0.3330078125 -84.333984375 38.166015625 -37.3330078125 76.6669921875 rrcurveto
            100 -68 -268 68 73 vlineto
            58 -58 83.3330078125 -29 108.666992188 0 188.504882812 0 175.495117188 65.1240234375 0 176.375976562 rrcurveto
            return
          </CharString>
          <CharString index="59">
            31 0 -59 249 -126 0 rlineto
            return
          </CharString>
          <CharString index="60">
            87 hlineto
            16 92 70.6669921875 46 125.333007812 0 125.333007812 0 70.6669921875 -46 16 -92 rrcurveto
            79 hlineto
            -13.08203125 112.50390625 -122.692382812 79.49609375 -124.225585938 0 -205.333007812 0 -110 -64 -14.6669921875 -128 rrcurveto
            return
          </CharString>
          <CharString index="61">
            126 120 -61 hlineto
            0 86.0727844238 6.37463378906 25.3020935059 64.6253662109 20.6251220703 rrcurveto
            44 vlineto
            -90.6666717529 -45.3333282471 -58 -116 hvcurveto
            return
          </CharString>
        <CharString name="#1">
          endchar
        </CharString>
        <CharString name=".notdef">
          endchar
        </CharString>
        <CharString name="A">
          287 872 1234 rmoveto
          -100 callsubr
          -442 -607 rmoveto
          -99 callsubr
          endchar
        </CharString>
        <CharString name="AE">
          936 918 1164 rmoveto
          664 0 56 -306 77 0 -70 376 -1010 0 -12 -63 158 0 -624 -1109 -157 0 -12 -62 402 0 12 62 -158 0 242 441 475 0 rlineto
          77 -441 -158 0 -12 -62 1028 0 -69 376 -77 0 56 -306 -683 0 -98 526 432 0 31 -172 67 0 -74 400 -67 0 30 -158 rlineto
          -432 hlineto
          -493 -102 rmoveto
          326 589 104 -589 rlineto
          endchar
        </CharString>
        <CharString name="Aacute">
          287 631 1377 rmoveto
          -77 callsubr
          182 -392 rmoveto
          -100 callsubr
          -442 -607 rmoveto
          -99 callsubr
          endchar
        </CharString>
        <CharString name="Acircumflex">
          287 456 1377 rmoveto
          -72 callsubr
          277 -416 rmoveto
          -100 callsubr
          -442 -607 rmoveto
          -99 callsubr
          endchar
        </CharString>
        <CharString name="Adieresis">
          287 817 1483 rmoveto
          -100 -106 100 hlineto
          -242 106 rmoveto
          -100 -106 100 hlineto
          297 -143 rmoveto
          -100 callsubr
          -442 -607 rmoveto
          -99 callsubr
          endchar
        </CharString>
        <CharString name="Agrave">
          287 631 1377 rmoveto
          -89 callsubr
          398 -392 rmoveto
          -100 callsubr
          -442 -607 rmoveto
          -99 callsubr
          endchar
        </CharString>
        <CharString name="Aring">
          287 768 1414.5 rmoveto
          -70 callsubr
          -122 170.5 rmoveto
          -69 callsubr
          226 -351 rmoveto
          -100 callsubr
          -442 -607 rmoveto
          -99 callsubr
          endchar
        </CharString>
        <CharString name="Atilde">
          287 538 1512 rmoveto
          -71 callsubr
          334 -278 rmoveto
          -100 callsubr
          -442 -607 rmoveto
          -99 callsubr
          endchar
        </CharString>
        <CharString name="B">
          199 940 654 rmoveto
          114 60 57 92.3333282471 0 124.666671753 0 81.3333282471 -32 70.8333435059 -64 60.3333282471 -64 60.3333282471 -89 30.1666717529 -114 0 rrcurveto
          -660 -63 166 -1109 -153 -62 719 hlineto
          113.333328247 0 88.8333435059 33.5 64.3333282471 67 64.3333282471 67 32.1666717529 76.8333282471 0 86.6666717529 -3.2306060791 177.683639526 -93.3994445801 104.201202393 -146.369949341 41.1151580811 rrcurveto
          -120 -592 rmoveto
          -485 551 470 hlineto
          92.6666717529 0 72.8333282471 -27.5 53 -55 53 -55 26.5 -64.5 0 -74 0 -74 -25 -64.3333282471 -50 -54.6666717529 -50 -54.6666717529 -69.3333282471 -27.3333282471 -88.6666717529 0 rrcurveto
          -24 616 rmoveto
          -461 493 413 hlineto
          89.3333282471 0 69.5 -23.8333282471 49.6666717529 -47.6666717529 49.6666717529 -47.6666717529 24.8333282471 -48.3333282471 0 -49 rrcurveto
          -174.261077881 -84.4030761719 -102.238922119 -150.596923828 vhcurveto
          endchar
        </CharString>
        <CharString name="C">
          307 1275 283 rmoveto
          -69 51 rlineto
          -102.666671753 -190.666671753 -162.666656494 -95.3333282471 -222.666671753 0 -178.666671753 0 -137.333328247 56 -96 112 -96 112 -48 133.833328247 0 155.666671753 0 155.666671753 50.5 133 101 110.333328247 101 110.333328247 128.166671753 55.1666717529 155.333328247 0 74.6666717529 0 63.3333282471 -8.66667175293 52 -17.3333282471 rrcurveto
          149.333328247 -49.3333282471 105.333343506 -94 61.3333282471 -138.666671753 rrcurveto
          62 13 0 347 -75 0 0 -207 rlineto
          -109.333328247 152 -153.166671753 76 -197 0 -197 0 -158.166671753 -60.6666717529 -119.333328247 -121.333328247 -119.333328247 -121.333328247 -59.6666717529 -157.166671753 0 -193 0 -193 63.1666717529 -152.333328247 126.333328247 -111.666671753 126.333328247 -111.666671753 144.5 -55.8333282471 162.666671753 0 264 0 191.333328247 102 118.666671753 204 rrcurveto
          endchar
        </CharString>
        <CharString name="Ccedilla">
          307 798 -208 rmoveto
          -68 callsubr
          477 491 rmoveto
          -69 51 rlineto
          -102.666992188 -190.666992188 -162.666015625 -95.3330078125 -222.666992188 0 -178.666992188 0 -137.333007812 56 -96 112 -96 112 -48 133.833007812 0 155.666992188 0 155.666992188 50.5 133 101 110.333007812 101 110.333007812 128.166992188 55.1669921875 155.333007812 0 74.6669921875 0 63.3330078125 -8.6669921875 52 -17.3330078125 rrcurveto
          149.333007812 -49.3330078125 105.333984375 -94 61.3330078125 -138.666992188 rrcurveto
          62 13 0 347 -75 0 0 -207 rlineto
          -109.333007812 152 -153.166992188 76 -197 0 -197 0 -158.166992188 -60.6669921875 -119.333007812 -121.333007812 -119.333007812 -121.333007812 -59.6669921875 -157.166992188 0 -193 0 -193 63.1669921875 -152.333007812 126.333007812 -111.666992188 126.333007812 -111.666992188 144.5 -55.8330078125 162.666992188 0 264 0 191.333007812 102 118.666992188 204 rrcurveto
          endchar
        </CharString>
        <CharString name="D">
          375 793 1234 rmoveto
          -693 -63 166 -1109 -166 -62 693 hlineto
          171.333328247 0 133.666671753 60.6666717529 96 121.333328247 96 121.333328247 48 151.666671753 0 182 0 92 -20 91.6666717529 -40 91.3333282471 -94.6666717529 214.666671753 -161.666656494 107.333328247 -228.666671753 0 rrcurveto
          -445 -63 rmoveto
          444 hlineto
          98.6666717529 -0.66667175293 85.6666564941 -27.6666564941 72.6666717529 -54.6666717529 136.666671753 -102.666671753 68.3333282471 -157.333328247 0 -212 0 -150.666671753 -40.3333282471 -130 -80.6666717529 -109.333328247 -80.6666717529 -109.333328247 -113.666656494 -54.6666717529 -146.666671753 0 rrcurveto
          -444 hlineto
          endchar
        </CharString>
        <CharString name="Delta">
          -274 699 hmoveto
          0 66 -319 996 -317 -995 0 -67 rlineto
          586 61 rmoveto
          -539 0 270 874 rlineto
          endchar
        </CharString>
        <CharString name="E">
          215 355 1164 rmoveto
          -98 callsubr
          endchar
        </CharString>
        <CharString name="Eacute">
          215 592 1377 rmoveto
          -77 callsubr
          -296 -462 rmoveto
          -98 callsubr
          endchar
        </CharString>
        <CharString name="Ecircumflex">
          215 418 1377 rmoveto
          -72 callsubr
          -202 -486 rmoveto
          -98 callsubr
          endchar
        </CharString>
        <CharString name="Edieresis">
          215 779 1483 rmoveto
          -100 -106 100 hlineto
          -242 106 rmoveto
          -100 -106 100 hlineto
          -182 -213 rmoveto
          -98 callsubr
          endchar
        </CharString>
        <CharString name="Egrave">
          215 592 1377 rmoveto
          -89 callsubr
          -80 -462 rmoveto
          -98 callsubr
          endchar
        </CharString>
        <CharString name="Eth">
          400 791 1234 rmoveto
          -693 -63 166 -509 -155 -65 155 -535 -166 -62 693 hlineto
          171.333328247 0 133.666671753 60.6666717529 96 121.333328247 96 121.333328247 48 151.666671753 0 182 0 92 -20 91.6666717529 -40 91.3333282471 -94.6666717529 214.666671753 -161.666656494 107.333328247 -228.666671753 0 rrcurveto
          -445 -572 rmoveto
          509 444 vlineto
          98.6666717529 -0.66667175293 85.6666564941 -27.6666564941 72.6666717529 -54.6666717529 136.666671753 -102.666671753 68.3333282471 -157.333328247 0 -212 0 -150.666671753 -40.3333282471 -130 -80.6666717529 -109.333328247 -80.6666717529 -109.333328247 -113.666656494 -54.6666717529 -146.666671753 0 rrcurveto
          -444 535 154 65 hlineto
          endchar
        </CharString>
        <CharString name="Euro">
          269 280 455 rmoveto
          621 62 -632 hlineto
          -4.66667175293 38.6666717529 -2.33332824707 35 0 31.3333282471 0 37.3333282471 3.33332824707 36.6666717529 6.66667175293 36 rrcurveto
          629 62 -615 hlineto
          17.3333282471 58.6666717529 24.6666717529 52.6666564941 32 46.6666717529 104 150.666671753 131.166671753 75.3333282471 158.333328247 0 158.333328247 0 135.5 -61.3333282471 112.666671753 -122.666671753 rrcurveto
          62 13 0 230 -75 0 0 -138 rlineto
          -110.666671753 104 -122.666656494 52 -134.666671753 0 -134.666671753 0 -121.333328247 -43 -108 -86 -108 -86 -71.6666717529 -110.666671753 -35.3333282471 -135.333328247 rrcurveto
          -190 -62 177 hlineto
          -6 -36 -3 -31.8333282471 0 -27.6666717529 0 -27.6666717529 2 -39.8333282471 4 -52 rrcurveto
          -174 -62 184 hlineto
          16 -80 26.6666717529 -70 37.3333282471 -60 110.666671753 -178 168.333328247 -89 226 0 153.333328247 0 143.333343506 44 133.333328247 88 rrcurveto
          -34 64 rlineto
          -127.333328247 -84.6666717529 -127.333343506 -42.3333282471 -127.333328247 0 -275.910247803 0 -184.640625 171.369049072 -52.4491271973 236.630950928 rrcurveto
          endchar
        </CharString>
        <CharString name="F">
          103 355 1164 rmoveto
          671 -306 77 376 -1005 -70 175 -1094 -175 -70 459 70 -202 507 493 hlineto
          -173 67 413 -67 -174 -493 vlineto
          endchar
        </CharString>
        <CharString name="G">
          322 1180 898 rmoveto
          62 336 -75 -183 hlineto
          -105.333328247 136 -148.166671753 68 -191 0 -191 0 -155.166671753 -60.6666717529 -119.333328247 -121.333328247 -119.333328247 -121.333328247 -59.6666717529 -140.166671753 0 -159 0 -159 30.3333282471 -128.166671753 60.6666717529 -97.3333282471 121.333328247 -194 191.333343506 -97 261.333328247 0 75.3333282471 0.66667175293 77.3333435059 17 79.3333282471 33.3333282471 rrcurveto
          212.666671753 89.3333282471 106.333328247 187 0 284.666671753 rrcurveto
          -349 -66 265 hlineto
          -6.94163513184 -296.755157471 -198.303024292 -178.244842529 -285.755340576 0 -179.333328247 0 -137.666671753 55.6666717529 -96 111.333328247 -96 111.333328247 -48 133.833343506 0 156.333328247 0 156.333328247 50.5 133.333343506 101 110.333328247 101 110.333328247 127.5 55.1666717529 154 0 234.666671753 0 161.333328247 -94.6666717529 88 -189.333328247 rrcurveto
          endchar
        </CharString>
        <CharString name="H">
          441 1360 1234 rmoveto
          -369 -63 148 -510 -802 510 155 63 -388 -63 152 -1109 -152 -62 388 hlineto
          62 -155 536 802 -536 -148 -62 369 62 -140 1109 140 vlineto
          endchar
        </CharString>
        <CharString name="I">
          -422 505 1234 rmoveto
          -97 callsubr
          endchar
        </CharString>
        <CharString name="IJ">
          39 719 -41 rmoveto
          -96 callsubr
          -214 1275 rmoveto
          -97 callsubr
          endchar
        </CharString>
        <CharString name="Iacute">
          -422 288 1377 rmoveto
          -77 callsubr
          158 -392 rmoveto
          -97 callsubr
          endchar
        </CharString>
        <CharString name="Icircumflex">
          -422 114 1377 rmoveto
          -72 callsubr
          252 -416 rmoveto
          -97 callsubr
          endchar
        </CharString>
        <CharString name="Idieresis">
          -422 475 1483 rmoveto
          -100 -106 100 hlineto
          -242 106 rmoveto
          -100 -106 100 hlineto
          272 -143 rmoveto
          -97 callsubr
          endchar
        </CharString>
        <CharString name="Igrave">
          -422 288 1377 rmoveto
          -89 callsubr
          374 -392 rmoveto
          -97 callsubr
          endchar
        </CharString>
        <CharString name="Itilde">
          -422 195 1512 rmoveto
          -71 callsubr
          310 -278 rmoveto
          -97 callsubr
          endchar
        </CharString>
        <CharString name="J">
          -573 107 -41 rmoveto
          -96 callsubr
          endchar
        </CharString>
        <CharString name="Jcircumflex">
          -573 32 1377 rmoveto
          -72 callsubr
          -64 -1691 rmoveto
          -84 -60 71 hlineto
          17.3330078125 0 18.6669921875 0.6669921875 20 1.3330078125 76 5.3330078125 37.6669921875 53 -0.6669921875 100.666992188 rrcurveto
          1114 139 60 -360 -60 139 -1115 vlineto
          -59.771484375 -8.810546875 -40.228515625 -65.189453125 vhcurveto
          endchar
        </CharString>
        <CharString name="K">
          283 506 1234 rmoveto
          -404 -60 161 -1114 -161 -60 404 60 -161 565 hlineto
          644 -565 -167 0 0 -60 455 0 0 60 -170 0 -660 574 600 540 173 0 0 60 -432 0 0 -60 153 0 -596 -532 0 532 rlineto
          161 hlineto
          endchar
        </CharString>
        <CharString name="L">
          115 471 1234 rmoveto
          -95 callsubr
          endchar
        </CharString>
        <CharString name="Ldotaccent">
          115 632 687 rmoveto
          -102 callsubr
          -161 667 rmoveto
          -95 callsubr
          endchar
        </CharString>
        <CharString name="Lslash">
          135 493 1234 rmoveto
          -360 -60 139 -459 hlineto
          -132 -78 0 -80 132 78 0 -565 -139 0 0 -70 925 0 0 412 -76 0 0 -342 -628 0 0 614 208 123 0 80 -208 -123 rlineto
          410 139 vlineto
          endchar
        </CharString>
        <CharString name="M">
          629 342 1088 rmoveto
          497 -1010 477 1010 0 -1026 -161 0 0 -62 401 0 0 62 -161 0 0 1109 161 0 0 63 -256 0 -461 -995 -481 995 -256 0 rlineto
          -63 161 -1109 -161 -62 401 62 -161 vlineto
          endchar
        </CharString>
        <CharString name="N">
          439 342 1234 rmoveto
          -94 callsubr
          endchar
        </CharString>
        <CharString name="NULL">
          -1034 endchar
        </CharString>
        <CharString name="Nacute">
          439 749 1377 rmoveto
          -77 callsubr
          -466 -392 rmoveto
          -94 callsubr
          endchar
        </CharString>
        <CharString name="Ntilde">
          439 656 1512 rmoveto
          -71 callsubr
          -314 -278 rmoveto
          -94 callsubr
          endchar
        </CharString>
        <CharString name="O">
          393 716.5 1182 rmoveto
          -93 callsubr
          1.5 -1205 rmoveto
          202 0 157.166671753 62.8333282471 112.333328247 125.666671753 112.333328247 125.666671753 56.1666717529 156.833328247 0 188 0 95.3333282471 -24 95.3333435059 -48 95.3333282471 -110.666671753 222 -189.333328247 111 -268 0 -202 0 -157.166671753 -64 -112.333328247 -128 -112.333328247 -128 -56.1666717529 -150.166671753 0 -172.333328247 rrcurveto
          0 -172.333328247 56.1666717529 -149 112.333328247 -125.666671753 112.333328247 -125.666671753 157.166671753 -62.8333282471 202 0 rrcurveto
          endchar
        </CharString>
        <CharString name="OE">
          903 1068 1164 rmoveto
          639 -306 77 376 -1068 hlineto
          -200.666671753 0 -156.833328247 -61.5 -113 -123 -113 -123 -56.5 -145 0 -167 0 -167 56.1666717529 -144.166671753 112.333328247 -121.333328247 112.333328247 -121.333328247 157.166671753 -60.6666717529 202 0 rrcurveto
          1090 376 -77 -306 -661 526 433 -172 67 400 -67 -158 -433 hlineto
          -82 492 rmoveto
          -1088 -270 vlineto
          -176.666671753 0 -136.833328247 53.3333282471 -97 106.666671753 -97 106.666671753 -48.5 127.333328247 0 148 0 148 49 128 98 108 98 108 136.333328247 54 174.666671753 0 rrcurveto
          endchar
        </CharString>
        <CharString name="Oacute">
          393 703 1377 rmoveto
          -77 callsubr
          -45.5 -444 rmoveto
          -67 callsubr
          1.5 -1205 rmoveto
          -66 callsubr
          endchar
        </CharString>
        <CharString name="Ocircumflex">
          393 528 1377 rmoveto
          -72 callsubr
          49.5 -468 rmoveto
          -67 callsubr
          1.5 -1205 rmoveto
          -66 callsubr
          endchar
        </CharString>
        <CharString name="Odieresis">
          393 889 1483 rmoveto
          -100 -106 100 hlineto
          -242 106 rmoveto
          -100 -106 100 hlineto
          69.5 -195 rmoveto
          -67 callsubr
          1.5 -1205 rmoveto
          -66 callsubr
          endchar
        </CharString>
        <CharString name="Ograve">
          393 703 1377 rmoveto
          -89 callsubr
          170.5 -444 rmoveto
          -67 callsubr
          1.5 -1205 rmoveto
          -66 callsubr
          endchar
        </CharString>
        <CharString name="Oslash">
          406 1160 1095 rmoveto
          90 115 -46 32 -86 -111 rlineto
          -108 82.6666717529 -132 41.3333282471 -156 0 -202 0 -157.166671753 -64 -112.333328247 -128 -112.333328247 -128 -56.1666717529 -150 0 -172 0 -216.666671753 78.3333282471 -169.333328247 156.666671753 -122 rrcurveto
          -89 -113 48 -34 89 114 rlineto
          101.333328247 -63.3333282471 119 -31.6666717529 136.666671753 0 202 0 157.166671753 62.8333282471 112.333328247 125.666671753 112.333328247 125.666671753 56.1666717529 155.333328247 0 185 0 185 -67.3333282471 154.5 -134.666671753 124 rrcurveto
          -91 -26 rmoveto
          -706 -904 rlineto
          -131.333328247 104.666671753 -65.6666717529 163 0 221.333328247 0 70 20.6666717529 77.3333282471 41.3333282471 84.6666717529 96 197.333328247 164.666671753 98.6666717529 233.333328247 0 134 0 115.666671753 -37.6666717529 97.3333282471 -75.3333282471 rrcurveto
          -658 -938 rmoveto
          700 900 rlineto
          111.333328247 -110 55.6666717529 -144.333328247 0 -178.666671753 0 -87.3333282471 -21.6666717529 -87 -43.3333282471 -86.6666717529 -96.6666717529 -192.666671753 -178.333328247 -96.3333282471 -260 0 -90 0 -89 27.6666717529 -88 55.3333282471 rrcurveto
          endchar
        </CharString>
        <CharString name="Otilde">
          393 610 1512 rmoveto
          -71 callsubr
          106.5 -330 rmoveto
          -67 callsubr
          1.5 -1205 rmoveto
          -66 callsubr
          endchar
        </CharString>
        <CharString name="P">
          150 101 62 rmoveto
          -62 404 62 -170 455 434 vlineto
          114 0 88.8333282471 36.6666717529 63.6666717529 73.3333282471 63.6666717529 73.3333282471 31.8333282471 84.5 0 95.6666717529 0 95.6666717529 -31.8333282471 82.8333282471 -63.6666717529 70 -63.6666717529 70 -88.8333282471 35 -114 0 rrcurveto
          -681 -63 166 -1109 hlineto
          81 520 rmoveto
          589 434 vlineto
          88.6666717529 0 69.3333282471 -28.5 50 -57 50 -57 25 -68.5 0 -80 0 -80 -25 -69.6666717529 -50 -59.3333282471 -50 -59.3333282471 -69.3333282471 -29.6666717529 -88.6666717529 0 rrcurveto
          endchar
        </CharString>
        <CharString name="Q">
          391 422 38 rmoveto
          -42.6666717529 -10 -45.6666564941 -15 -48.6666717529 -20 rrcurveto
          18 -71 rlineto
          90 43.3333282471 72.5 21.6666717529 55 0 55 0 39.6666717529 -4.16667175293 24.3333282471 -8.33332824707 140.843399048 -48.2340393066 85.0433807373 -107.265960693 188.113220215 0 40.3333282471 0 46.1666717529 8 52 16 rrcurveto
          -25 73 rlineto
          -39.3333282471 -16 -45.8333435059 -8 -52.3333282471 0 -52.3333282471 0 -78.5 29.6666717529 -104.666671753 59.3333282471 178 16.6666717529 138.5 69.5 99 122.333328247 99 122.333328247 49.5 150.166671753 0 178 0 93.3333282471 -24 94 -48 94.6666717529 -110.666671753 222 -189.333328247 111 -268 0 rrcurveto
          -278.20501709 0 -194.206985474 -140.823989868 -94.0879974365 -188.176010132 -49 -98 -24.5 -91.3333282471 0 -84.6666717529 0 -302.666671753 114.666671753 -204.666656494 229.333328247 -106.666671753 rrcurveto
          294.5 1144 rmoveto
          -93 callsubr
          endchar
        </CharString>
        <CharString name="R">
          240 101 62 rmoveto
          -62 404 62 -170 515 308 vlineto
          342 -577 232 0 0 62 -174 0 -316 515 1 0 rlineto
          114 0 88.8333282471 33 63.6666717529 66 63.6666717529 66 31.8333282471 77 0 88 0 88 -31.8333282471 76.5 -63.6666717529 65 -63.6666717529 65 -88.8333282471 32.5 -114 0 rrcurveto
          -640 -63 166 -1109 hlineto
          474 580 rmoveto
          -393 529 393 hlineto
          89.3333282471 0 69.5 -26.1666717529 49.6666717529 -52.3333282471 49.6666717529 -52.3333282471 24.8333282471 -52.6666717529 0 -53 rrcurveto
          -193.533874512 -106.134460449 -98.9661254883 -176.865539551 vhcurveto
          endchar
        </CharString>
        <CharString name="Racute">
          240 637 1377 rmoveto
          -77 callsubr
          -595 -1564 rmoveto
          -54 callsubr
          474 580 rmoveto
          -53 callsubr
          endchar
        </CharString>
        <CharString name="Rcaron">
          240 545 1650 rmoveto
          -51 callsubr
          -549 -1364 rmoveto
          -54 callsubr
          474 580 rmoveto
          -53 callsubr
          endchar
        </CharString>
        <CharString name="Rcommaaccent">
          240 694 -114 rmoveto
          -55 callsubr
          -593 298 rmoveto
          -54 callsubr
          474 580 rmoveto
          -53 callsubr
          endchar
        </CharString>
        <CharString name="S">
          72 565 1182 rmoveto
          120.666671753 0 111.333328247 -34 102 -68 rrcurveto
          -181 79 335 -79 -71 vlineto
          -116 61.3333282471 -115.5 30.6666717529 -115 0 -115 0 -97 -29 -79 -58 -79 -58 -39.5 -83.3333282471 0 -108.666671753 0 -108.666671753 35.1666717529 -77.6666564941 70.3333282471 -46.6666717529 70.3333282471 -46.6666717529 105.5 -30.3333282471 140.666671753 -14 140.666671753 -14 101 -25.5 61.3333282471 -37 rrcurveto
          61.3333282471 -37 30.6666717529 -61.5 0 -86 0 -43.3333282471 -6.66667175293 -37.6666717529 -13.3333282471 -32 -48 -112 -97.6666717529 -56 -147.333328247 0 -147.333328247 0 -138.666671753 48 -130 96 rrcurveto
          220 -79 -416 79 112 vlineto
          128.666671753 -90 134.833328247 -45 141 0 141 0 104.166671753 36.1666717529 67.3333282471 72.3333282471 67.3333282471 72.3333282471 33.6666717529 87 0 101.666671753 0 101.666671753 -40 75.3333282471 -80 49 -80 49 -106.833328247 31.1666717529 -133.666671753 13.3333282471 -133.666671753 13.3333282471 -95.8333282471 21.8333435059 -58 30.3333282471 rrcurveto
          -58 30.3333282471 -29 57.5 0 84.6666717529 0 185.333328247 110.333328247 92.6666717529 220.666671753 0 rrcurveto
          endchar
        </CharString>
        <CharString name="Scaron">
          72 488 1650 rmoveto
          -51 callsubr
          -28 -244 rmoveto
          -50 callsubr
          endchar
        </CharString>
        <CharString name="T">
          37 1073 1234 rmoveto
          -92 callsubr
          endchar
        </CharString>
        <CharString name="Thorn">
          96 338 1042 rmoveto
          129 155 63 -387 -63 151 -1109 -153 -62 404 62 -170 359 398 vlineto
          104 0 82.3333282471 32.1666717529 60.6666717529 64.3333282471 60.6666717529 64.3333282471 30.3333282471 74 0 83.6666717529 0 83.6666717529 -29.1666717529 71.3333282471 -58.3333282471 59 -58.3333282471 59 -83.5 29.5 -108.666671753 0 rrcurveto
          -556 vmoveto
          -398 493 398 hlineto
          82.6666717529 0 63.8333282471 -23.1666717529 45 -46.3333282471 45 -46.3333282471 22.5 -47.5 0 -48.6666717529 rrcurveto
          -180.862472534 -99.4026794434 -100.137527466 -159.597320557 vhcurveto
          endchar
        </CharString>
        <CharString name="U">
          387 1142 1171 rmoveto
          -765 vlineto
          0 -59.3333282471 -13.3333282471 -52 -26.6666717529 -44.6666717529 -80.6666717529 -134.666671753 -140.666656494 -67.3333282471 -200.666671753 0 -118 0 -102.166671753 31.1666717529 -86.3333282471 62.3333282471 -86.3333282471 62.3333282471 -43.1666717529 88.1666717529 0 114 rrcurveto
          765 161 63 -403 -63 161 -767 vlineto
          0 -135.333328247 51.3333282471 -105 102.666671753 -74.6666717529 102.666671753 -74.6666717529 123 -37.3333282471 143.333328247 0 143.333328247 0 125.5 37.6666717529 107.666671753 75.3333282471 107.666671753 75.3333282471 53.8333282471 104.666671753 0 134 rrcurveto
          767 160 63 -403 -63 vlineto
          endchar
        </CharString>
        <CharString name="Uacute">
          387 677 1377 rmoveto
          -77 callsubr
          406 -455 rmoveto
          -65 callsubr
          endchar
        </CharString>
        <CharString name="Ucircumflex">
          387 503 1377 rmoveto
          -72 callsubr
          500 -479 rmoveto
          -65 callsubr
          endchar
        </CharString>
        <CharString name="Udieresis">
          387 864 1483 rmoveto
          -100 -106 100 hlineto
          -242 106 rmoveto
          -100 -106 100 hlineto
          520 -206 rmoveto
          -65 callsubr
          endchar
        </CharString>
        <CharString name="Ugrave">
          387 677 1377 rmoveto
          -89 callsubr
          622 -455 rmoveto
          -65 callsubr
          endchar
        </CharString>
        <CharString name="V">
          125 516 hmoveto
          86 0 444 1171 156 0 0 63 -403 0 0 -63 153 0 -392 -1071 -396 1071 157 0 0 63 -403 0 0 -63 158 0 rlineto
          endchar
        </CharString>
        <CharString name="W">
          793 1239 hmoveto
          87 0 380 1171 156 0 0 63 -399 0 0 -63 153 0 -332 -1071 -348 1071 157 0 0 63 -398 0 0 -63 153 0 -332 -1071 rlineto
          -348 1071 157 0 0 63 -403 0 0 -63 158 0 391 -1171 89 0 333 1044 rlineto
          endchar
        </CharString>
        <CharString name="X">
          236 470 1234 rmoveto
          -403 -63 161 hlineto
          360 -537 -379 -572 -154 0 0 -62 403 0 0 62 -160 0 334 506 340 -506 -161 0 0 -62 403 0 0 62 -160 0 -381 567 rlineto
          359 542 158 0 0 63 -403 0 0 -63 160 0 -318 -476 -319 476 160 0 rlineto
          endchar
        </CharString>
        <CharString name="Y">
          107 -88 1171 rmoveto
          -91 callsubr
          endchar
        </CharString>
        <CharString name="Yacute">
          107 535 1377 rmoveto
          -77 callsubr
          -682 -455 rmoveto
          -91 callsubr
          endchar
        </CharString>
        <CharString name="Ydieresis">
          107 721 1483 rmoveto
          -100 -106 100 hlineto
          -242 106 rmoveto
          -100 -106 100 hlineto
          -567 -206 rmoveto
          -91 callsubr
          endchar
        </CharString>
        <CharString name="Z">
          195 185 70 rmoveto
          -90 callsubr
          endchar
        </CharString>
        <CharString name="Zcaron">
          195 495 1650 rmoveto
          -51 callsubr
          -415 -1356 rmoveto
          -90 callsubr
          endchar
        </CharString>
        <CharString name="a">
          -53 341.5 -14 rmoveto
          122.333328247 0 110.833343506 36.3333282471 99.3333282471 72.6666717529 rrcurveto
          16 -95 217 0 0 60 -153 0 0 533 rlineto
          0 26.6666717529 -4.33332824707 28.6666564941 -8.66667175293 30.6666717529 -32.6666717529 116.666671753 -94.5 58.3333282471 -156.333328247 0 -156.333328247 0 -112.5 -33 -68.6666717529 -66 rrcurveto
          36 -59 rlineto
          60 60.6666717529 93.3333282471 30.3333282471 126.666671753 0 rrcurveto
          158.666671753 79.3333282471 -70.6666717529 -141.333328247 hvcurveto
          -129 vlineto
          -98 19.3333282471 -91 9.66667175293 -84 0 -214 -0.66667175293 -107 -75.6666564941 0 -150.666671753 0 -171.472213745 104.446624756 -90.5277862549 157.053375244 0 rrcurveto
          -180.5 245.5 rmoveto
          146.451248169 106.121551514 32.0487518311 162.878448486 vhcurveto
          76 0 81.3333282471 -8.66667175293 86.6666717529 -17.3333282471 rrcurveto
          -226 vlineto
          -76 -70 -99.3333282471 -35 -122.666671753 0 rrcurveto
          -130.916732788 -84.0832672119 66.0258331299 112.47416687 hvcurveto
          endchar
        </CharString>
        <CharString name="aacute">
          -53 478 976 rmoveto
          -77 callsubr
          -195.5 -1239 rmoveto
          -64 callsubr
          -180.5 245.5 rmoveto
          -63 callsubr
          endchar
        </CharString>
        <CharString name="acircumflex">
          -53 272 976 rmoveto
          -72 callsubr
          -69.5 -1263 rmoveto
          -64 callsubr
          -180.5 245.5 rmoveto
          -63 callsubr
          endchar
        </CharString>
        <CharString name="acute">
          -620 125 985 rmoveto
          -77 callsubr
          endchar
        </CharString>
        <CharString name="adieresis">
          -53 609 1082 rmoveto
          -100 -106 100 hlineto
          -242 106 rmoveto
          -100 -106 100 hlineto
          -25.5 -990 rmoveto
          -64 callsubr
          -180.5 245.5 rmoveto
          -63 callsubr
          endchar
        </CharString>
        <CharString name="ae">
          465 756 400 rmoveto
          691 hlineto
          235.018325806 -122.850524902 218.981674194 -227.149475098 vhcurveto
          -160 0 -117.666671753 -71 -75.3333282471 -142 -32.6666717529 142 -95 71 -157.333328247 0 -157.333328247 0 -113 -33 -68.6666717529 -66 rrcurveto
          36 -59 rlineto
          60 60.6666717529 93.3333282471 30.3333282471 126.666671753 0 rrcurveto
          158.666671753 79.3333282471 -70.6666717529 -141.333328247 hvcurveto
          6 -129 rlineto
          -98 19.3333282471 -92 9.66667175293 -86 0 -216 -0.66667175293 -108 -75.6666564941 0 -150.666671753 0 -174.666671753 102.666671753 -87.3333282471 205.333328247 0 154 0 124.333328247 43.3333282471 94.6666717529 86.6666717529 75.3333282471 -86.6666717529 105.5 -43.3333282471 135.666671753 0 135.666671753 0 123.5 54.3333282471 111.333328247 108.666671753 rrcurveto
          -33 55 rlineto
          -92.6666717529 -104 -111.333328247 -50.6666717529 -130 2.66667175293 rrcurveto
          -223.788284302 -101.211715698 112.446273804 235.553726196 hvcurveto
          613 66 rmoveto
          -611 hlineto
          4.66667175293 86 32.3333282471 75 60 64 60 64 77.6666717529 32 95.3333282471 0 48 0 40 -9 32 -18 96 -53.3333282471 53.6666717529 -98 11.3333282471 -142.666671753 rrcurveto
          -939.5 -56 rmoveto
          75.6666717529 0 83.5 -8.66667175293 91.3333282471 -17.3333282471 0 -78.6666717529 17 -73.3333282471 34 -68 -102.52053833 -81.1151580811 -70.466796875 -29.8848419189 -155.012664795 0 rrcurveto
          -161.333328247 -80.6666717529 59.6666717529 119.333328247 145.771987915 106.261444092 32.228012085 162.238555908 hvcurveto
          endchar
        </CharString>
        <CharString name="agrave">
          -53 478 976 rmoveto
          -89 callsubr
          20.5 -1239 rmoveto
          -64 callsubr
          -180.5 245.5 rmoveto
          -63 callsubr
          endchar
        </CharString>
        <CharString name="ampersand">
          127 487 1255 rmoveto
          -84.6666717529 0 -68 -23.8333282471 -51.3333282471 -47.6666717529 -51.3333282471 -47.6666717529 -25.6666717529 -54.1666564941 0 -60.6666717529 0 -60.6666717529 16.6666717529 -52.6666564941 33.3333282471 -44.6666717529 rrcurveto
          117 -161 rlineto
          -191.505477905 -63.4574279785 -109.494522095 -89.4484405518 0 -226.59413147 0 -95 38.1666717529 -81.3333282471 76.3333282471 -67.6666717529 76.3333282471 -67.6666717529 86.8333435059 -33.8333282471 97.3333282471 0 173.572952271 2.75512695312 97.0492248535 27.8715820312 94.377822876 105.373291016 rrcurveto
          102 -113 194 0 0 68 -160 0 -84 103 rlineto
          69.3333282471 92.6666717529 34.6666717529 91.6666564941 0 90.6666717529 rrcurveto
          140 65 -196 hlineto
          0 -110.666671753 -22.6666717529 -84.6666564941 -45.3333282471 -58.6666717529 -9.33332824707 -12.6666717529 -6.66667175293 -9.33332824707 -4 -6 rrcurveto
          -349 447 rlineto
          57.3333282471 23.3333282471 47.6666717529 24.6666717529 38 26 100.666671753 68.6666717529 50.3333282471 91.3333282471 0 114 0 144.914489746 -129.402526855 86.0855102539 -152.597473145 0 rrcurveto
          -342 -923 rmoveto
          -0.66667175293 34.6666717529 3.66667175293 32.6666564941 8 30.6666717529 25.3333282471 101.333328247 84.6666717529 72 144 42.6666717529 rrcurveto
          363 -476 rlineto
          -82.5405731201 -96.7272338867 -69.6888427734 -25.2727661133 -171.270584106 0 -153.440063477 0 -151.059936523 132.344451904 0 151.655548096 rrcurveto
          344 851 rmoveto
          101.257125854 103.742874146 -52.2182617188 -94.7817382812 hvcurveto
          0 -42 -3.33332824707 -34.6666717529 -6.66667175293 -27.3333282471 -21.3333282471 -81.3333282471 -81.3333435059 -68 -141.333328247 -54.6666717529 rrcurveto
          -117 161 rlineto
          -29.3333282471 40.6666717529 -14.6666717529 42.5 0 44.3333282471 rrcurveto
          98.3889312744 106.24281311 68.1110687256 103.75718689 vhcurveto
          endchar
        </CharString>
        <CharString name="approxequal">
          -223 255 574 rmoveto
          -72.6666717529 0 -41.3333282471 -43 -10 -86 rrcurveto
          38 hlineto
          8 27.3333282471 17.5 13.6666717529 27 0 27 0 50.5 -7.83332824707 74 -15.6666717529 74 -15.6666717529 56.6666717529 -7.83332824707 39.3333282471 0 72.6666717529 0 41.3333282471 43.6666717529 10 87.3333282471 rrcurveto
          -37 hlineto
          -9.33332824707 -28.6666717529 -20.8333435059 -14.3333282471 -32.3333282471 0 -58.3539733887 0 -193.195053101 47 -60.9509735107 0 rrcurveto
          298 64 rmoveto
          73.3333282471 0 41.6666717529 43.6666717529 10 87.3333282471 rrcurveto
          -37 hlineto
          -10.6666717529 -28.6666717529 -21.1666564941 -14.3333282471 -31.6666717529 0 -31.6666717529 0 -50.3333282471 7.83332824707 -69 15.6666717529 -69 15.6666717529 -53.8333282471 7.83332824707 -38.6666717529 0 -73.3333282471 0 -41 -43 -8.66667175293 -86 rrcurveto
          38 hlineto
          6.66667175293 27.3333282471 17.1666564941 13.6666717529 27.6666717529 0 27.6666717529 0 50.8333282471 -7.83332824707 74 -15.6666717529 74 -15.6666717529 56.3333282471 -7.83332824707 38.6666717529 0 rrcurveto
          endchar
        </CharString>
        <CharString name="aring">
          -53 579 1146.5 rmoveto
          -70 callsubr
          -122 170.5 rmoveto
          -69 callsubr
          -115.5 -1331 rmoveto
          -64 callsubr
          -180.5 245.5 rmoveto
          -63 callsubr
          endchar
        </CharString>
        <CharString name="asciicircum">
          -143 822 761 rmoveto
          -330 494 -85 0 -346 -494 74 0 314 425 301 -425 rlineto
          endchar
        </CharString>
        <CharString name="asciitilde">
          -246 249 1157 rmoveto
          -72.6666717529 0 -41.3333282471 -43 -10 -86 rrcurveto
          38 hlineto
          8 27.3333282471 17.5 13.6666717529 27 0 27 0 50.5 -7.83332824707 74 -15.6666717529 74 -15.6666717529 56.6666717529 -7.83332824707 39.3333282471 0 72.6666717529 0 41.3333282471 43.6666717529 10 87.3333282471 rrcurveto
          -37 hlineto
          -10 -28.6666717529 -21 -14.3333282471 -32 0 -57.8999328613 0 -193.458572388 47 -60.641494751 0 rrcurveto
          endchar
        </CharString>
        <CharString name="asterisk">
          -100 517 1229 rmoveto
          -101 0 33 -411 -375 174 -31 -86 396 -121 -269 -313 76 -57 221 346 220 -346 76 57 -269 313 396 121 -31 86 -374 -174 rlineto
          endchar
        </CharString>
        <CharString name="at">
          424 983 252 rmoveto
          94 0 85.8333282471 49.6666717529 77.6666717529 99.3333282471 77.6666717529 99.3333282471 38.8333282471 116.833343506 0 134.333328247 0 134.333328247 -49 119.166671753 -98 104 -98 104 -155.333328247 52 -212.666671753 0 -122.666671753 0 -113.333328247 -32.3333282471 -104 -64.6666717529 -213.333328247 -132.666671753 -106.666671753 -207.666656494 0 -282.666671753 rrcurveto
          0 -84 25 -88 50 -92 117.333328247 -216 208 -108 298.666671753 0 174 0 142.666671753 42 111.333328247 84 rrcurveto
          -37 50 rlineto
          -102 -71.3333282471 -139.166671753 -35.6666717529 -176.333328247 0 -349.081420898 0 -235.418579102 216.253890991 0 348.246109009 0 173.666671753 56 144 112 114.333328247 112 114.333328247 138.5 57.1666717529 165 0 165 0 128.333328247 -45.5 91.6666717529 -91 91.6666717529 -91 45.8333282471 -113.833328247 0 -136.666671753 rrcurveto
          0 -143.962692261 -79.8775482178 -133.866195679 -82.1224517822 -63.1711120605 -43.3333282471 -33.3333282471 -32.8333435059 -16.6666717529 -22.3333282471 0 -35.2762145996 0 -31.2237854004 19.6906280518 0 30.3093719482 0 11.3333282471 0.66667175293 9 1.33332824707 6.66667175293 rrcurveto
          122 560 -87 0 -24 -122 rlineto
          -46.6666717529 95.3333282471 -78.3333282471 47.6666717529 -110 0 -110 0 -86.1666717529 -42.8333282471 -62.3333282471 -85.6666717529 -62.3333282471 -85.6666717529 -31.1666717529 -94.3333282471 0 -103 0 -103 32.3333282471 -87.1666717529 64.6666717529 -71.3333282471 35.3333282471 -38.6666717529 51.6666717529 -19.3333282471 68 0 98 0 87.3333282471 57.3333282471 76.6666717529 114.666671753 rrcurveto
          -2 -10.6666717529 -1 -15.5 0 -20.3333282471 0 -71.025177002 38.9146118164 -54.474822998 56.0853881836 0 rrcurveto
          -62 426 rmoveto
          0 -78.6666717529 -25.8333282471 -79.6666564941 -51.6666717529 -80.6666717529 -51.6666717529 -80.6666717529 -66.5 -40.3333282471 -81.3333282471 0 -116.658203125 0 -56.341796875 126.762115479 0 129.737884521 0 79 23 76.1666717529 46 73.3333282471 46 73.3333282471 65.6666717529 36.6666717529 85.3333282471 0 119.927154541 0 64.072845459 -101.773345947 0 -133.226654053 rrcurveto
          endchar
        </CharString>
        <CharString name="atilde">
          -53 355 1111 rmoveto
          -71 callsubr
          -13.5 -1125 rmoveto
          -64 callsubr
          -180.5 245.5 rmoveto
          -63 callsubr
          endchar
        </CharString>
        <CharString name="b">
          135 338 1234 rmoveto
          -228 -60 149 -1114 -165 -60 231 hlineto
          6 62 rlineto
          2 20.6666717529 2.33332824707 21 2.66667175293 21.3333282471 28.6666717529 -32 45.6666564941 -29.6666717529 62.6666717529 -27.3333282471 183.333328247 -80 156 5 128.666671753 90 128.666671753 90 64.3333282471 127.666671753 0 165.333328247 0 112.666671753 -39.3333282471 98.1666564941 -78.6666717529 83.6666717529 -78.6666717529 83.6666717529 -110.5 41.8333282471 -142.333328247 0 rrcurveto
          -142.333328247 0 -116.166671753 -53 -90 -106 rrcurveto
          719 -307 rmoveto
          -88 callsubr
          endchar
        </CharString>
        <CharString name="backslash">
          -499 496 -23 rmoveto
          -372 1278 -71 0 367 -1278 rlineto
          endchar
        </CharString>
        <CharString name="bar">
          -608 178 1255 rmoveto
          -1278 68 1278 vlineto
          endchar
        </CharString>
        <CharString name="braceleft">
          -479 301 212 rmoveto
          0 72.6666717529 -1.33332824707 60 -2.66667175293 47.3333282471 -8 144 -44.3333282471 74.6666717529 -80.6666717529 5.33332824707 58 4 37.3333282471 31 16.6666717529 58 16.6666717529 58 8.33332824707 84.6666717529 0 111.333328247 0 111.333328247 11 67.5 22 23.6666717529 22 23.6666717529 47 11.8333282471 72 0 rrcurveto
          54 -65 vlineto
          -89.3333282471 0 -57.3333435059 -32.6666717529 -25.3333282471 -65.3333282471 -14.6666717529 -37.3333282471 -7.33332824707 -76.8333435059 0 -116.333328247 0 -116.333328247 -7.33332824707 -73.8333435059 -14.6666717529 -31.3333282471 -14.6666717529 -31.3333282471 -42 -15.6666717529 -69.3333282471 0 rrcurveto
          -84 vlineto
          69.3333282471 0 42 -15.6666717529 14.6666717529 -31.3333282471 14.6666717529 -31.3333282471 7.33332824707 -54.3333435059 0 -77.3333282471 0 -77.3333282471 0.66667175293 -60 1.33332824707 -42.6666717529 4.66667175293 -138.666671753 64 -69 123.333328247 0.66667175293 rrcurveto
          65 54 hlineto
          -144.664352417 -29.335647583 35.6958770752 145.304122925 hvcurveto
          endchar
        </CharString>
        <CharString name="braceright">
          -477 260 1021.5 rmoveto
          0 -73 1.33332824707 -60.5 2.66667175293 -48 8 -144 44.3333282471 -74.6666717529 80.6666717529 -5.33332824707 -56.6666717529 -4 -37 -31 -17.3333282471 -58 -17.3333282471 -58 -8.66667175293 -84.6666717529 0 -111.333328247 0 -111.333328247 -11 -67.5 -22 -23.6666717529 -22 -23.6666717529 -47 -11.8333282471 -72 0 rrcurveto
          -54 65 vlineto
          90 0 57.6666717529 32.6666717529 25.3333282471 65.3333282471 14.6666717529 37.3333282471 7.33332824707 76.8333435059 0 116.333328247 0 116.333328247 7.33332824707 73.8333435059 14.6666717529 31.3333282471 14.6666717529 31.3333282471 41.6666564941 15.6666717529 68.6666717529 0 rrcurveto
          84 vlineto
          -68.6666717529 0 -41.6666564941 15.6666717529 -14.6666717529 31.3333282471 -14.6666717529 31.3333282471 -7.33332824707 54.3333435059 0 77.3333282471 0 77.3333282471 -0.66667175293 60 -1.33332824707 42.6666717529 -4.66667175293 138.666671753 -64.3333282471 69 -124 -0.66667175293 rrcurveto
          -65 -54 hlineto
          146.721115112 27.2788848877 -32.7174530029 -146.782546997 hvcurveto
          endchar
        </CharString>
        <CharString name="bracketleft">
          -516 420 1255 rmoveto
          -242 -1278 242 63 -160 1153 160 hlineto
          endchar
        </CharString>
        <CharString name="bracketright">
          -512 342 1255 rmoveto
          -242 -62 161 -1153 -161 -63 242 hlineto
          endchar
        </CharString>
        <CharString name="breve">
          -448 182 1248 rmoveto
          -51 hlineto
          11.6575775146 -97.9236450195 65.1618041992 -70.0763549805 88.1806182861 0 100.886749268 0 51.4886322021 72.3452148438 8.62461853027 95.6547851562 rrcurveto
          -43 hlineto
          -10 -74.6666717529 -42.6666717529 -37.3333282471 -75.3333282471 0 -54.8405761719 0 -43.9396209717 53.5382232666 -5.21980285645 58.4617767334 rrcurveto
          endchar
        </CharString>
        <CharString name="brokenbar">
          -620 172 1255 rmoveto
          -540 68 540 vlineto
          -68 -738 rmoveto
          -540 68 540 vlineto
          endchar
        </CharString>
        <CharString name="bullet">
          -295 129 674.5 rmoveto
          -130.855697632 108.205764771 -101.644302368 131.794235229 131.208694458 109.791305542 102.512466431 129.987533569 129.511016846 -110.634063721 100.988983154 -130.365936279 -130.927932739 -109.072067261 -100.127441406 -130.372558594 vhcurveto
          endchar
        </CharString>
        <CharString name="c">
          -98 772 600 rmoveto
          66 260 -76 -110 hlineto
          -42 70 -88.1666717529 34.1666717529 -134.333328247 -1.66667175293 -260.019165039 -3.22604370117 -180.480834961 -171.940200806 0 -258.833755493 0 -253.899047852 199.951660156 -176.290618896 253.548339844 -1.31033325195 129 -0.66667175293 118.833328247 54 108.666671753 108.666671753 rrcurveto
          -23 73 rlineto
          -85.3333282471 -112 -114.666671753 -56 -144 0 -98 1.33332824707 -84.6666717529 33.5 -71.3333282471 65.6666717529 -71.3333282471 65.6666717529 -35.6666717529 89.3333282471 0 113 0 113 35.3333282471 89 70.6666717529 65 70.6666717529 65 85.6666564941 32.5 100.666671753 0 152.195755005 -2.11383056641 106.170410156 -62.7308349609 11.6338348389 -122.155334473 rrcurveto
          endchar
        </CharString>
        <CharString name="caron">
          -436 191 1195 rmoveto
          -51 callsubr
          endchar
        </CharString>
        <CharString name="ccedilla">
          -98 584 -199 rmoveto
          -68 callsubr
          188 799 rmoveto
          66 260 -76 -110 hlineto
          -42 70 -88.1669921875 34.1669921875 -134.333007812 -1.6669921875 -260.01953125 -3.2255859375 -180.48046875 -171.940429688 0 -258.833984375 0 -253.899414062 199.951171875 -176.290039062 253.548828125 -1.310546875 129 -0.6669921875 118.833007812 54 108.666992188 108.666992188 rrcurveto
          -23 73 rlineto
          -85.3330078125 -112 -114.666992188 -56 -144 0 -98 1.3330078125 -84.6669921875 33.5 -71.3330078125 65.6669921875 -71.3330078125 65.6669921875 -35.6669921875 89.3330078125 0 113 0 113 35.3330078125 89 70.6669921875 65 70.6669921875 65 85.666015625 32.5 100.666992188 0 152.1953125 -2.1142578125 106.170898438 -62.73046875 11.6337890625 -122.155273438 rrcurveto
          endchar
        </CharString>
        <CharString name="cedilla">
          -604 336 -188 rmoveto
          0 16 -10.5 17.3333282471 -21 18.6666717529 -21 18.6666717529 -30.8333282471 9.33332824707 -40.6666717529 0 rrcurveto
          -12 0 39 114 -50 0 -58 -150 rlineto
          67.3333282471 -6 33.6666717529 -14.8333282471 0 -23.6666717529 0 -23.6666717529 -14.1666717529 -11.8333282471 -28.3333282471 0 -28.3333282471 0 -29.8333435059 4.66667175293 -31.3333282471 9.33332824707 rrcurveto
          -46 vlineto
          34.6666717529 -13.3333282471 33.6666564941 -6.66667175293 32.6666717529 0 90 0 45 29.3333282471 0 58.6666717529 rrcurveto
          endchar
        </CharString>
        <CharString name="cent">
          -84 865 149 rmoveto
          -23 73 rlineto
          -85.3333282471 -112 -114.666671753 -56 -144 0 -28.6666717529 0 -29 3.66667175293 -29.3333282471 7.33332824707 rrcurveto
          203 708 rlineto
          93.3333282471 -25.3333282471 52 -57.6666717529 10.6666717529 -90 rrcurveto
          66 260 -76 -110 hlineto
          -24 38 -42.6666717529 28 -61.3333282471 18 rrcurveto
          66 230 -58 0 -63 -217 rlineto
          -29.3333282471 4.66667175293 -26.3333435059 2.33332824707 -23.3333282471 0 -136 -2.66667175293 -107.833328247 -41.6666564941 -79.6666717529 -80.6666717529 -79.6666717529 -80.6666717529 -39.8333282471 -101 0 -121.333328247 -0.66667175293 -56 7 -49.3333282471 14.6666717529 -42.6666717529 44 -128 86.3333282471 -87.6666717529 128.666671753 -47.3333282471 rrcurveto
          -67 -229 63 0 61 213 rlineto
          31.3333282471 -7.33332824707 34 -4.33334350586 36.6666717529 -1.33332824707 138.666671753 0 123.666656494 54.3333282471 108.666671753 108.666671753 rrcurveto
          -307 634 rmoveto
          -203 -700 rlineto
          -130.864028931 52.9024810791 -87.1359710693 120.360626221 0 157.2368927 0 119 35.3333282471 92 70.6666717529 65 70.6666717529 65 78.6666564941 32.5 86.6666717529 0 34 0 26.3333282471 -1.33332824707 18.6666717529 -2.66667175293 rrcurveto
          endchar
        </CharString>
        <CharString name="circumflex">
          -436 106 922 rmoveto
          -72 callsubr
          endchar
        </CharString>
        <CharString name="colon">
          -618 267 815 rmoveto
          -102 callsubr
          -381 vmoveto
          -102 callsubr
          endchar
        </CharString>
        <CharString name="comma">
          -622 274 116 rmoveto
          -105 callsubr
          endchar
        </CharString>
        <CharString name="commaaccent">
          -635 266 1237 rmoveto
          -105 callsubr
          endchar
        </CharString>
        <CharString name="copyright">
          424 1040 379 rmoveto
          -22 69 rlineto
          -71.3333282471 -95.3333282471 -86 -47.3333435059 -100.666671753 0.66667175293 -100.666671753 0.66667175293 -79.6666564941 27.1666564941 -58.6666717529 53.6666717529 -58.6666717529 53.6666717529 -29.3333282471 61.6666564941 0 69.6666717529 0 69.6666717529 8.33332824707 54.1666564941 16.6666717529 38.6666717529 50 116.666671753 92.5 58.3333282471 135 0 135 0 73.1666717529 -52 11.3333282471 -104 rrcurveto
          61 223 -71 -82 hlineto
          -36.6666717529 51.3333282471 -59.5 25.3333435059 -82.3333282471 -0.66667175293 -82.3333282471 -0.66667175293 -64.1666717529 -9.66665649414 -46 -18.6666717529 -144.666671753 -58.6666717529 -72.3333282471 -113.333328247 0 -168 0 -213.377700806 168.646621704 -145.322280884 213.853378296 -1.30001831055 109.666671753 -0.66667175293 100.166656494 45.6666717529 90.6666717529 92 rrcurveto
          -731.5 645 rmoveto
          -80 callsubr
          419.5 -1047 rmoveto
          -79 callsubr
          endchar
        </CharString>
        <CharString name="currency">
          39 743 647 rmoveto
          108 -106 83 82 -102 101 rlineto
          58 69.3333282471 29 80.3333435059 0 91.3333282471 0 88.6666717529 -28 80.3333282471 -56 72 rrcurveto
          99 100 -83 82 -105 -105 rlineto
          -62.6666717529 40.6666717529 -70.5 20.3333282471 -78.3333282471 0 -78.3333282471 0 -69.8333435059 -19.6666717529 -61.3333282471 -39.3333282471 rrcurveto
          -104 103 -82 -82 96 -98 rlineto
          -58.6666717529 -65.3333282471 -29.3333282471 -79.5 0 -93.6666717529 0 -93.6666717529 30 -82.8333282471 60 -72 rrcurveto
          -98 -98 82 -82 106 105 rlineto
          61.3333282471 -39.3333282471 70.3333435059 -19.6666717529 79.3333282471 0 79.3333282471 0 68.3333435059 20 57.3333282471 40 rrcurveto
          -211 600 rmoveto
          145.958770752 139.041229248 -113.38053894 -142.61946106 -207.333328247 -103 -103.666671753 -206 hvcurveto
          -55.3333282471 0 -56.3333435059 25 -57.3333282471 50 -57.3333282471 50 -28.6666717529 70 0 90 rrcurveto
          179.502716064 121.044128418 102.497283936 157.955871582 vhcurveto
          endchar
        </CharString>
        <CharString name="d">
          131 845 125 rmoveto
          13 -125 231 0 0 60 -165 0 0 1174 -283 0 0 -60 204 0 0 -479 rlineto
          -90 106 -116.166671753 53 -142.333328247 0 -142.333328247 0 -110.5 -41.6666717529 -78.6666717529 -83.3333282471 -78.6666717529 -83.3333282471 -39.3333282471 -103 0 -122.666671753 0 -62.6666717529 15 -65.1666564941 30 -67.6666717529 51.5387115479 -116.248428345 137.035308838 -122.251571655 158.425979614 0 187.333328247 0 135.333343506 46.3333282471 83.3333282471 92.6666717529 rrcurveto
          -365 -72 rmoveto
          -60 0 -52 11 -44 22 -132 65.3333282471 -66 113.333343506 0 161.333328247 0 102.666671753 32.6666717529 85.8333282471 65.3333282471 69 65.3333282471 69 92.3333435059 34.5 119.333328247 0 119.333328247 0 114.666671753 -56 110 -112 rrcurveto
          -426 vlineto
          -120 -93.3333282471 -121.666671753 -46.6666717529 -123.333328247 0 rrcurveto
          endchar
        </CharString>
        <CharString name="dagger">
          -454 269 2 rmoveto
          40 0 26 591 rlineto
          0 104.666671753 -8.66667175293 98 -17.3333282471 91.3333282471 rrcurveto
          227 -25 0 79 -227 -18 33 287 -106 0 33 -287 -230 18 0 -79 230 25 rlineto
          -17.3333282471 -93.3333282471 -8.66667175293 -99 0 -104.666671753 rrcurveto
          endchar
        </CharString>
        <CharString name="daggerdbl">
          -395 302 299 rmoveto
          -230 25 0 -79 230 18 -33 -287 106 0 -33 287 227 -18 0 79 -227 -25 rlineto
          9.33332824707 59.3333282471 4.66667175293 97.3333435059 0 135.333328247 0 135.333328247 -4.66667175293 98.6666717529 -9.33332824707 62 rrcurveto
          227 -25 0 79 -227 -18 33 287 -106 0 33 -287 -230 18 0 -79 230 25 rlineto
          -9.33332824707 -46.6666717529 -4.66667175293 -98 0 -149.333328247 0 -152 4.66667175293 -98 9.33332824707 -44 rrcurveto
          endchar
        </CharString>
        <CharString name="degree">
          -221 593 1052 rmoveto
          -2.77328491211 -122.024475098 -78.2498474121 -65.8272094727 -114.976867676 0.851684570312 -124.039367676 0 -71.9606323242 75.2292633057 0 111.770736694 2.77328491211 122.024475098 78.2498474121 65.8272094727 114.976867676 -0.851684570312 124.039367676 0 71.9606323242 -75.2292633057 0 -111.770736694 rrcurveto
          -196 -284 rmoveto
          81.3333282471 0 71.5 25.1666717529 61.6666717529 50.3333282471 61.6666717529 50.3333282471 30.8333282471 69.5 0 88.6666717529 0 88 -40 76.6666717529 -80 65.3333282471 -43.3333282471 36 -62.3333435059 18 -81.3333282471 0 -81.3333282471 0 -71.5 -25.1666717529 -61.6666717529 -50.3333282471 -61.6666717529 -50.3333282471 -30.8333282471 -69.5 0 -88.6666717529 rrcurveto
          0 -88 40 -76.6666717529 80 -65.3333282471 43.3333282471 -36 62.3333435059 -18 81.3333282471 0 rrcurveto
          endchar
        </CharString>
        <CharString name="dieresis">
          -426 473 1046 rmoveto
          -100 -106 100 hlineto
          -242 106 rmoveto
          -100 -106 100 hlineto
          endchar
        </CharString>
        <CharString name="divide">
          -512 529 413 rmoveto
          62 -529 -62 vlineto
          324 -137 rmoveto
          -104 callsubr
          569 vmoveto
          -104 callsubr
          endchar
        </CharString>
        <CharString name="dollar">
          117 701 -23 rmoveto
          3 hlineto
          143.333328247 0 108.666671753 40 74 80 60 64.6666717529 30.3333282471 73.3333282471 0.66667175293 82 1.40071105957 245.125732422 -175.029190063 72.3991699219 -246.371520996 28.4750976562 rrcurveto
          515 vlineto
          95.3333282471 -10.6666717529 90 -32.6666564941 84.6666717529 -54.6666717529 rrcurveto
          -181 79 335 -79 -71 vlineto
          -91.3333282471 48 -90 29 -88.6666717529 10 rrcurveto
          171 -60 -166 -17 vlineto
          -114.666671753 0 -96.8333282471 -29 -79 -58 -79 -58 -39.5 -83.1666717529 0 -108.333328247 0 -108.333328247 38 -79.8333435059 76 -51.3333282471 62.6666717529 -42 104 -28.3333282471 145.333328247 -14.6666717529 rrcurveto
          -537 vlineto
          -118.666671753 14 -112.666656494 46.3333282471 -106.666671753 78.6666717529 rrcurveto
          220 -79 -416 79 112 vlineto
          107.333328247 -75.3333282471 112.666671753 -44 118 -12.6666717529 rrcurveto
          -170 60 vlineto
          250.5 698.5 rmoveto
          53.6666717529 -37.6666717529 26.8333282471 -58.8333282471 0 -80 0 -80 -26.3333282471 -66 -52.6666717529 -52 -38.2617950439 -38.2617950439 -82.6237030029 -43.7382049561 -68.1145019531 0 rrcurveto
          -47 hlineto
          -5.33332824707 0 -5.33334350586 0.33332824707 -5.33332824707 0.66667175293 rrcurveto
          534 vlineto
          113.333328247 -14.6666717529 83.5 -26.1666564941 53.6666717529 -37.6666717529 rrcurveto
          -314.5 673.5 rmoveto
          4 -512 hlineto
          -115.333328247 12 -80.6666717529 19.3333282471 -46 26.6666717529 -62 36 -31 60.3333282471 0 84.6666717529 rrcurveto
          186.625915527 132.907714844 86.3740844727 198.092285156 vhcurveto
          endchar
        </CharString>
        <CharString name="dotaccent">
          -637 257 1184 rmoveto
          -104 callsubr
          endchar
        </CharString>
        <CharString name="dotaccentcmb">
          -637 257 1184 rmoveto
          -104 callsubr
          endchar
        </CharString>
        <CharString name="dotaccentcmb.cap">
          -645 250 1121 rmoveto
          -102 callsubr
          endchar
        </CharString>
        <CharString name="dotlessi">
          -465 106 776 rmoveto
          -86 callsubr
          endchar
        </CharString>
        <CharString name="dotlessj">
          -637 74 -199 rmoveto
          -154 -72 96 hlineto
          98.5333404541 0 66.8333282471 29.2777709961 35.1333312988 58.555557251 16.3333282471 27.2222290039 8.16667175293 46.388885498 0 65.555557251 rrcurveto
          904 -216 -81 147 -779 vlineto
          -103.466766357 -12.1849212646 -95.5332336426 -85.8150787354 vhcurveto
          endchar
        </CharString>
        <CharString name="e">
          -100 867 149 rmoveto
          -33 55 rlineto
          -96 -101.333328247 -115.333328247 -50.6666717529 -134.666671753 0 -44 0 -42 7.33332824707 -40 14.6666717529 -137.333328247 50 -74.3333435059 108.666671753 -11.3333282471 167.333328247 rrcurveto
          751 hlineto
          0 128 -34.8333282471 107.666671753 -69.6666717529 87.3333282471 -69.6666717529 87.3333282471 -99.3333282471 43.6666717529 -129 0 -129 0 -104 -43 -79 -86 -79 -86 -39.5 -103.5 0 -121 0 -121 41.6666717529 -101.666671753 83.3333282471 -82.3333282471 83.3333282471 -82.3333282471 106.333343506 -41.1666717529 129.333328247 0 rrcurveto
          129.333328247 0 122 54.3333282471 114.666671753 108.666671753 rrcurveto
          -55 317 rmoveto
          -671 hlineto
          4.66667175293 86 34.3333282471 75 64 64 64 64 84 32 104 0 52 0 44.3333282471 -9 36.6666717529 -18 108 -53.3333282471 61 -98 14 -142.666671753 rrcurveto
          endchar
        </CharString>
        <CharString name="eacute">
          -100 458 976 rmoveto
          -77 callsubr
          350 -1076 rmoveto
          -62 callsubr
          -55 317 rmoveto
          -61 callsubr
          endchar
        </CharString>
        <CharString name="ecircumflex">
          -100 284 976 rmoveto
          -72 callsubr
          444 -1100 rmoveto
          -62 callsubr
          -55 317 rmoveto
          -61 callsubr
          endchar
        </CharString>
        <CharString name="edieresis">
          -100 645 1082 rmoveto
          -100 -106 100 hlineto
          -242 106 rmoveto
          -100 -106 100 hlineto
          464 -827 rmoveto
          -62 callsubr
          -55 317 rmoveto
          -61 callsubr
          endchar
        </CharString>
        <CharString name="egrave">
          -100 458 976 rmoveto
          -89 callsubr
          566 -1076 rmoveto
          -62 callsubr
          -55 317 rmoveto
          -61 callsubr
          endchar
        </CharString>
        <CharString name="eight">
          8 111 328.5 rmoveto
          0 -117 40.6666717529 -88 81.3333282471 -59 81.3333282471 -59 96.6666717529 -29.5 112 0 112 0 96.5 29.6666717529 81 59.3333282471 81 59.3333282471 40.5 79.6666717529 0 100 0 195.558334351 -110.304824829 113.239944458 -157.695175171 31.2017211914 130.170944214 37.191696167 97.8290557861 115.835906982 0 128.472396851 rrcurveto
          202.732162476 -159.07913208 126.767837524 -211.92086792 vhcurveto
          -114.666671753 0 -90.5 -31.3333282471 -66.3333282471 -62.6666717529 -66.3333282471 -62.6666717529 -33.1666717529 -71.6666564941 0 -80.6666717529 0 -154.666671753 76 -100.666656494 152 -46.6666717529 -159.458862305 -31.8917694092 -108.672622681 -131.184005737 -0.868515014648 -152.424224854 rrcurveto
          412 267.5 rmoveto
          54 0 47.3333282471 -8 40.6666717529 -16 123.333328247 -48.6666717529 61.6666717529 -83.3333282471 0 -118 0 -86 -32.5 -67 -65 -48 -65 -48 -76.6666717529 -24 -88.3333282471 0 -88.3333282471 0 -76.6666717529 24 -65 48 -65 48 -32.5 73.6666717529 0 99.3333282471 rrcurveto
          0 60 29.1666717529 57.3333282471 58.3333282471 54.6666717529 58.3333282471 54.6666717529 80.1666717529 27.3333282471 102 0 rrcurveto
          586 vmoveto
          91.3333282471 0 77.3333435059 -31 63.3333282471 -62 35.3333282471 -34 17.6666717529 -50.6666717529 0 -67.3333282471 0 -31.3333282471 -6 -31 -12 -30.6666717529 -42.6666717529 -109.333328247 -89 -55 -135.333328247 -0.66667175293 -89.3333282471 0 -77.3333435059 33.3333282471 -65.3333282471 66.6666717529 -36 36 -18 52.6666717529 0 69.3333282471 rrcurveto
          0 31.3333282471 6 30.3333435059 12 29.3333282471 42 102.666671753 89.3333282471 51.3333282471 136.666671753 0 rrcurveto
          endchar
        </CharString>
        <CharString name="ellipsis">
          -108 263 120 rmoveto
          -104 callsubr
          261 120 rmoveto
          -102 callsubr
          260 120 rmoveto
          -104 callsubr
          endchar
        </CharString>
        <CharString name="emdash">
          324 1220 60 rmoveto
          -1077 -60 1077 hlineto
          endchar
        </CharString>
        <CharString name="endash">
          -39 859 60 rmoveto
          -716 -60 716 hlineto
          endchar
        </CharString>
        <CharString name="equal">
          -243 652 634 rmoveto
          62 -509 -62 vlineto
          509 -278 rmoveto
          63 -509 -63 vlineto
          endchar
        </CharString>
        <CharString name="eth">
          -114 451 49 rmoveto
          -99.3333282471 0 -77.5 30 -55.6666717529 60 -55.6666717529 60 -27.8333282471 63.5 0 67 0 214.234985352 123.757629395 114.265014648 188.242370605 0 85.3333282471 0 73.8333435059 -27.6666717529 62.3333282471 -55.3333282471 62.3333282471 -55.3333282471 31.1666717529 -72.8333435059 0 -90.3333282471 0 -186.809249878 -119.661590576 -120.690750122 -191.338409424 0 rrcurveto
          14 1094 rmoveto
          -118 218 -67 -47 106 -192 -311 -82 19 -52 321 83 217 -393 rlineto
          -65.3333282471 32 -75 16 -84.6666717529 0 -84.6666717529 0 -80.1666564941 -34.6666717529 -75.6666717529 -69.3333282471 -75.6666717529 -69.3333282471 -37.8333282471 -86.1666717529 0 -103 0 -103 35.3333282471 -90.1666717529 70.6666717529 -77.3333282471 70.6666717529 -77.3333282471 106.333328247 -38.6666717529 142 0 83.3333282471 0 81 34.6666717529 78.6666717529 69.3333282471 rrcurveto
          78.6666717529 69.3333282471 39.3333282471 95.3333435059 0 121.333328247 0 70 -44.6666717529 110 -89.3333282471 150 rrcurveto
          -212 394 325 84 -24 55 rlineto
          endchar
        </CharString>
        <CharString name="exclam">
          -602 200 344 rmoveto
          31 0 29 465 0 362 -89 0 0 -362 rlineto
          -7 -703 rmoveto
          -106 103 vlineto
          2 106 rlineto
          endchar
        </CharString>
        <CharString name="exclamdown">
          -604 164 1171 rmoveto
          -105 105 vlineto
          -2 105 rlineto
          -36 -344 rmoveto
          -31 0 -29 -465 0 -362 89 0 0 362 rlineto
          endchar
        </CharString>
        <CharString name="f">
          -391 261 1064 rmoveto
          -228 -155 -57 155 -719 -155 -60 425 60 -191 719 203 57 -203 230 vlineto
          55.7995452881 36.1109924316 50.2004547119 51.8890075684 54 27 -35.3333282471 -70.6666717529 vhcurveto
          75 hlineto
          -2.16967773438 87.8718261719 -58.1854400635 80.1281738281 -79.6448822021 0 rrcurveto
          -118.071304321 -64.9286956787 -65.2044219971 -104.795578003 hvcurveto
          endchar
        </CharString>
        <CharString name="fi">
          99 259 970 rmoveto
          -134 -155 -60 155 -716 -155 -60 425 60 -191 716 484 -716 -150 -60 vlineto
          382 60 -153 776 -563 136 hlineto
          136.673721313 157.780960083 77.3262786865 141.219039917 vhcurveto
          78 0 61 -18.6666717529 44 -37.3333282471 -18.6666717529 -10.6666717529 -9.33332824707 -14 0 -17.3333282471 0 -41.3333282471 21.5 -20.8333435059 43 -0.33332824707 43 0.33332824707 21.5 24.1666717529 0 48 -0.66667175293 22.6666717529 -9 20.6666564941 -17.3333282471 18.6666717529 -52 58.6666717529 -80 29.3333282471 -108 0 rrcurveto
          -190.91619873 -204.08380127 -95.6872253418 -182.312774658 hvcurveto
          endchar
        </CharString>
        <CharString name="five">
          -12 123 217 rmoveto
          -47 -54 rlineto
          86.6666717529 -120.666671753 140.333328247 -60.3333282471 194 0 132 0 109.5 34.3333282471 87 68.6666717529 87 68.6666717529 43.5 96.6666564941 0 124.666671753 0 193.333328247 -76.6666717529 129.666671753 -153.333328247 66 -49.3333282471 21.3333282471 -76 10.6666717529 -102.666671753 0 -102.666671753 0 -87.6666564941 -16 -72.6666717529 -32 rrcurveto
          9 416 568 0 1 70 -648 0 0 -549 52 -25 rlineto
          86 44.6666717529 118 22.3333282471 150 0 93.3333282471 0 73.5 -33.5 53.6666717529 -67 53.6666717529 -67 26.8333282471 -71.8333282471 0 -76.6666717529 0 -76.6666717529 -9.33332824707 -59 -18.6666717529 -41.3333282471 -54 -121.333328247 -115.833328247 -60.5 -177.666671753 0.33332824707 -177.666671753 0.33332824707 -124.5 54.8333435059 -71.3333282471 109.333328247 rrcurveto
          endchar
        </CharString>
        <CharString name="fl">
          160 259 962 rmoveto
          -126 -155 -57 155 -719 -155 -60 425 60 -191 719 203 57 -203 129 vlineto
          0 72.6666717529 31.5 55.6666564941 63 38.6666717529 63 38.6666717529 59.1666717529 19.3333282471 55.3333282471 0 rrcurveto
          168 84 -22.3333282471 -44.6666717529 hvcurveto
          -1063 -186 -60 449 60 -183 1063 vlineto
          0 22 -8 19 -16 16 -48.6666717529 48.6666717529 -82.6666564941 24.3333282471 -116.666671753 0 rrcurveto
          -210.068572998 -200.931427002 -89.5536193848 -201.446380615 hvcurveto
          endchar
        </CharString>
        <CharString name="florin">
          -305 710 1165 rmoveto
          14 54 rlineto
          -37.3333282471 16.6666717529 -38 8.33332824707 -38.6666717529 0 -97.3333282471 0 -62.6666717529 -55.3333282471 -28 -110.666671753 rrcurveto
          -68 -242 -154 0 -16 -57 155 0 -198 -719 rlineto
          -17.4156799316 -61.9224395752 -29.3026733398 -22.0775604248 -96.2816467285 0 rrcurveto
          -16 -62 rlineto
          22.6666717529 0 23.3333282471 0.66667175293 24 1.33332824707 86.6666717529 6.66667175293 56 48 25.3333282471 89.3333282471 rrcurveto
          198 719 203 0 15 57 -202 0 67 244 rlineto
          15.3333282471 68.6666717529 38.6666717529 34.3333282471 62 0 27.3333282471 0 31 -6 34.6666717529 -12 rrcurveto
          endchar
        </CharString>
        <CharString name="foundryicon">
          endchar
        </CharString>
        <CharString name="four">
          -139 4 442 rmoveto
          11 -63 507 0 0 -317 -161 0 0 -62 403 0 0 62 -161 0 0 317 257 0 0 63 -257 0 0 792 -114 0 rlineto
          33 -792 rmoveto
          -425 0 425 714 rlineto
          endchar
        </CharString>
        <CharString name="foursuperior">
          -264 74 316 rmoveto
          -74 callsubr
          19 -543 rmoveto
          -73 callsubr
          endchar
        </CharString>
        <CharString name="fraction">
          -497 415 1255 rmoveto
          -103 callsubr
          endchar
        </CharString>
        <CharString name="g">
          76 831 120 rmoveto
          -108 vlineto
          0 -85.3333282471 -28.6666717529 -64.6666717529 -57.3333282471 -44 -57.3333282471 -44 -111.666671753 -22 -166 0 rrcurveto
          -149 -69 hlineto
          58.6666717529 0 72.1666564941 1 85.6666717529 2 85.6666717529 2 79.8333282471 14 74 26 128.666671753 45.3333282471 64.3333282471 100.333343506 0 155.333328247 rrcurveto
          751 164 60 -230 vlineto
          -13 -125 rlineto
          -11.3333282471 12.6666717529 -17 14.3333282471 -22.6666717529 16 -89.3333282471 64 -107.333343506 32 -125.333328247 0 -125.333328247 0 -98.1666717529 -45 -71 -90 -71 -90 -35.5 -101.666671753 0 -113.333328247 0 -113.333328247 38.1666717529 -99.6666717529 76.3333282471 -86 76.3333282471 -86 107.5 -43 138.666671753 0 rrcurveto
          138.666671753 0 112.333328247 44.6666717529 86 89.3333282471 rrcurveto
          527 vmoveto
          -457 vlineto
          -32.6666717529 -29.3333282471 -41 -30.1666717529 -49.3333282471 -31 -49.3333282471 -31 -75.3333435059 -15.5 -101.333328247 0 -221.98008728 0 -120.593505859 167.277618408 -2.42640686035 231.722381592 -0.66667175293 75.3333282471 29 74.6666717529 58.6666717529 74 58.6666717529 74 86.3333282471 37 114 0 114 0 116 -46.6666717529 118 -93.3333282471 rrcurveto
          endchar
        </CharString>
        <CharString name="germandbls">
          47 694 676 rmoveto
          131.352279663 26.2704620361 86.6800842285 102.791473389 0.467636108398 130.938064575 0.699417114258 195.836608887 -148.645751953 123.163391113 -201.553665161 0 rrcurveto
          -232.666671753 -116.333328247 -134.666671753 -269.333328247 hvcurveto
          -789 -153 -62 350 62 -116 794 vlineto
          216.571487427 55.2657012939 107.428512573 203.734298706 163.706558228 116.293441772 -79.7029266357 -150.797073364 vhcurveto
          0 -65.6666717529 -23.1666717529 -59.5 -46.3333282471 -53.3333282471 -46.3333282471 -53.3333282471 -64.8333435059 -28.6666717529 -83.3333282471 -4 rrcurveto
          -44 vlineto
          73.3333282471 0.66667175293 62 -8.33334350586 50.6666717529 -17.3333282471 142 -48 71 -93 0 -138 rrcurveto
          -183.333328247 -135.666671753 -91.6666717529 -271.333328247 vhcurveto
          -62 vlineto
          84.6666717529 0 73 8.66667175293 61.3333282471 17.3333282471 178 49.3333282471 89 103.666671753 0 158 0 196.221496582 -157.422393799 135.360473633 -196.577606201 7.41802978516 rrcurveto
          endchar
        </CharString>
        <CharString name="grave">
          -614 261 985 rmoveto
          -89 callsubr
          endchar
        </CharString>
        <CharString name="greater">
          -125 86 -23 rmoveto
          847 636 -847 642 0 -93 733 -549 -733 -545 rlineto
          endchar
        </CharString>
        <CharString name="greaterequal">
          -131 133 194 rmoveto
          688 359 0 37 -688 362 0 -70 582 -311 -582 -309 rlineto
          688 -262 rmoveto
          58 -688 -58 vlineto
          endchar
        </CharString>
        <CharString name="guillemotleft">
          -256 616 1043 rmoveto
          -273 -379 273 -383 48 0 -213 383 213 379 rlineto
          -316 hmoveto
          -78 callsubr
          endchar
        </CharString>
        <CharString name="guillemotright">
          -256 437 664 rmoveto
          -75 callsubr
          540 383 rmoveto
          -273 379 -48 0 213 -379 -213 -383 48 0 rlineto
          endchar
        </CharString>
        <CharString name="guilsinglleft">
          -522 348 1043 rmoveto
          -78 callsubr
          endchar
        </CharString>
        <CharString name="guilsinglright">
          -522 437 664 rmoveto
          -75 callsubr
          endchar
        </CharString>
        <CharString name="h">
          164 86 1176 rmoveto
          173 -1116 -162 -60 433 60 -192 604 hlineto
          27.3333282471 15.3333282471 27 15 26.6666717529 14.6666717529 94.6666717529 52 89.3333282471 26 84 0 rrcurveto
          129.333328247 64.6666717529 -62 -124 hvcurveto
          -541 -158 -60 412 60 -175 557 vlineto
          0 64 -21.1666717529 55.5 -42.3333282471 47 -42.3333282471 47 -65.8333435059 23.5 -89.3333282471 0 -37.3333282471 0 -41.5 -4.16667175293 -45.6666717529 -8.33332824707 -45.6666717529 -8.33332824707 -78.8333282471 -35.1666717529 -112 -62 rrcurveto
          498 -252 vlineto
          endchar
        </CharString>
        <CharString name="hbar">
          170 93 1176 rmoveto
          173 -164 -174 -63 174 -889 -162 -60 433 60 -192 604 hlineto
          27.3333282471 15.3333282471 27 15 26.6666717529 14.6666717529 94.6666717529 52 89.3333282471 26 84 0 rrcurveto
          129.333328247 64.6666717529 -62 -124 hvcurveto
          -541 -158 -60 412 60 -175 557 vlineto
          0 64 -21.1666717529 55.5 -42.3333282471 47 -42.3333282471 47 -65.8333435059 23.5 -89.3333282471 0 -37.3333282471 0 -41.5 -4.16667175293 -45.6666717529 -8.33332824707 -45.6666717529 -8.33332824707 -78.8333282471 -35.1666717529 -112 -62 rrcurveto
          213 232 63 -232 222 -252 vlineto
          endchar
        </CharString>
        <CharString name="hungarumlaut">
          -411 335 985 rmoveto
          -77 callsubr
          -269 -249 rmoveto
          -77 callsubr
          endchar
        </CharString>
        <CharString name="hyphen">
          -248 661 413 rmoveto
          62 -530 -62 vlineto
          endchar
        </CharString>
        <CharString name="i">
          -452 300.5 1092 rmoveto
          -87 callsubr
          -185.5 -316 rmoveto
          -86 callsubr
          endchar
        </CharString>
        <CharString name="iacute">
          -465 282 976 rmoveto
          -77 callsubr
          -235 -449 rmoveto
          -86 callsubr
          endchar
        </CharString>
        <CharString name="icircumflex">
          -465 88 976 rmoveto
          -72 callsubr
          -121 -473 rmoveto
          -86 callsubr
          endchar
        </CharString>
        <CharString name="idieresis">
          -465 439 1082 rmoveto
          -100 -106 100 hlineto
          -242 106 rmoveto
          -100 -106 100 hlineto
          -91 -200 rmoveto
          -86 callsubr
          endchar
        </CharString>
        <CharString name="igrave">
          -465 282 976 rmoveto
          -89 callsubr
          -19 -449 rmoveto
          -86 callsubr
          endchar
        </CharString>
        <CharString name="ij">
          -26 742 779 rmoveto
          -85 callsubr
          180.5 313 rmoveto
          -84 callsubr
          -487 hmoveto
          -87 callsubr
          -185.5 -316 rmoveto
          -86 callsubr
          endchar
        </CharString>
        <CharString name="infinity">
          260 647 644 rmoveto
          -18 34.6666717529 -19.6666717529 29.3333282471 -21.3333282471 24 -61.3333282471 69.3333282471 -67.8333435059 34.6666717529 -74.3333282471 0 -74.3333282471 0 -60.1666717529 -27.6666717529 -46 -55.3333282471 -46 -55.3333282471 -23 -57 0 -58.6666717529 0 -208 79.6666717529 -104 159.333328247 0 114.666671753 0 92 64 69.3333282471 128 rrcurveto
          63.3333282471 -131.333328247 87.3333435059 -65.6666717529 111.333328247 0 65.3333282471 0 57.6666717529 25.5 50 51 50 51 25 69.6666717529 0 88.3333282471 0 88.3333282471 -31.3333282471 76.1666717529 -62.6666717529 64 -35.3333282471 35.3333282471 -51 17.6666717529 -66.6666717529 0 -110.666671753 0 -88.6666564941 -62.6666717529 -66.6666717529 -125.333328247 rrcurveto
          268 -328 rmoveto
          -26 0 -23.6666717529 4.33332824707 -21.3333282471 8.66667175293 -58.6666717529 24 -57 73 -55.3333282471 122 72.6666717529 154.666671753 75 77.3333282471 77.3333282471 0 64 0 48.3333282471 -22.1666717529 32.6666717529 -44.3333282471 32.6666717529 -44.3333282471 16.3333282471 -47.1666717529 0 -50 0 -170.666671753 -59 -85.3333282471 -118 0 rrcurveto
          -528 469 rmoveto
          90 0 78 -77.3333282471 66 -154.666671753 -71.3333282471 -155.333328247 -83 -77.6666717529 -94.6666717529 0 -50.6666717529 0 -40.8333282471 21.5 -31 43 -31 43 -15.5 45.5 0 48 0 176 61.3333282471 88 122.666671753 0 rrcurveto
          endchar
        </CharString>
        <CharString name="integral">
          -334 701 1165 rmoveto
          14 54 rlineto
          -37.3333282471 16.6666717529 -38 8.33332824707 -38.6666717529 0 -95.3333282471 0 -62.6666717529 -55.3333282471 -30 -110.666671753 rrcurveto
          -281 -1018 rlineto
          -17.4156799316 -61.9224395752 -29.3026733398 -22.0775604248 -96.2816467285 0 rrcurveto
          -16 -62 rlineto
          23.3333282471 0 23.6666717529 0.66667175293 24 1.33332824707 86.6666717529 6.66667175293 55.6666564941 48 24.6666717529 89.3333282471 rrcurveto
          281 1020 rlineto
          18 68.6666717529 38.6666717529 34.3333282471 59.3333282471 0 27.3333282471 0 31 -6 34.6666717529 -12 rrcurveto
          endchar
        </CharString>
        <CharString name="itilde">
          -465 149 1111 rmoveto
          -71 callsubr
          -43 -335 rmoveto
          -86 callsubr
          endchar
        </CharString>
        <CharString name="j">
          -626 162 779 rmoveto
          -85 callsubr
          166.5 313 rmoveto
          -84 callsubr
          endchar
        </CharString>
        <CharString name="jcircumflex">
          -637 -27 982 rmoveto
          -72 callsubr
          -38 -1454 rmoveto
          -154 -72 96 hlineto
          98.533203125 0 66.8330078125 29.27734375 35.1337890625 58.5556640625 16.3330078125 27.22265625 8.1669921875 46.388671875 0 65.5556640625 rrcurveto
          904 -216 -81 147 -779 vlineto
          -103.466796875 -12.1845703125 -95.533203125 -85.8154296875 vhcurveto
          endchar
        </CharString>
        <CharString name="k">
          90 94 1174 rmoveto
          -83 callsubr
          endchar
        </CharString>
        <CharString name="kcommaaccent">
          90 614 -114 rmoveto
          -55 callsubr
          -520 1410 rmoveto
          -83 callsubr
          endchar
        </CharString>
        <CharString name="kgreenlandic">
          107 102 778 rmoveto
          186 -718 -186 -60 449 60 -184 362 hlineto
          430 -362 -123 0 0 -60 383 0 0 60 -151 0 -446 379 403 337 159 0 0 60 -385 0 0 -60 124 0 -394 -331 0 393 rlineto
          -265 hlineto
          endchar
        </CharString>
        <CharString name="l">
          -422 94 1174 rmoveto
          -82 callsubr
          endchar
        </CharString>
        <CharString name="ldot">
          -53 854 815 rmoveto
          -102 callsubr
          -760 479 rmoveto
          -82 callsubr
          endchar
        </CharString>
        <CharString name="less">
          -127 -18 613 rmoveto
          847 -636 0 91 -733 545 733 549 0 93 rlineto
          endchar
        </CharString>
        <CharString name="lessequal">
          -129 88 553 rmoveto
          688 -359 0 68 -582 309 582 311 0 70 -688 -362 rlineto
          -532 vmoveto
          -58 688 58 vlineto
          endchar
        </CharString>
        <CharString name="logicalnot">
          -47 838 697 rmoveto
          -738 -80 661 -313 77 hlineto
          endchar
        </CharString>
        <CharString name="lozenge">
          -127 481 -23 rmoveto
          400 639 -400 638 -51 0 -401 -640 401 -637 rlineto
          28 1204 rmoveto
          341 -565 -341 -569 -343 569 rlineto
          endchar
        </CharString>
        <CharString name="lslash">
          -354 563 887 rmoveto
          -171 -101 0 448 -265 0 0 -60 186 0 0 -435 -172 -102 0 -80 172 102 0 -599 -186 0 0 -60 449 0 0 60 -184 0 rlineto
          0 646 171 101 rlineto
          endchar
        </CharString>
        <CharString name="m">
          625 1201 854 rmoveto
          -106.666671753 0 -114.333328247 -42.3333282471 -122 -84.6666717529 -36 84.6666717529 -65.6666717529 42.3333282471 -95.3333282471 0 -30 0 -36.1666717529 -4.16667175293 -42.3333282471 -8.33332824707 -42.3333282471 -8.33332824707 -70.5 -35.1666717529 -98.6666717529 -62 rrcurveto
          -9 100 -240 0 0 -57 173 0 0 -719 -162 0 0 -60 397 0 0 60 -156 0 0 604 rlineto
          71.3333282471 44.6666717529 55.5 31.6666564941 39.6666717529 18.6666717529 56.5408630371 26.6074676514 104.588287354 14.5779571533 56.3708496094 -28.1854248047 46.6666717529 -24 23.6666564941 -57 0.66667175293 -90 rrcurveto
          -541 -157 -60 412 60 -176 557 vlineto
          0 15.3333282471 -1 15.6666717529 -2 16 69.3333282471 43.3333282471 55.5 31.3333435059 41.6666717529 19.3333282471 58.7686462402 27.268661499 103.803726196 15.6951446533 57.9276275635 -28.9638061523 46.6666717529 -24 23.6666564941 -57 0.66667175293 -90 rrcurveto
          -541 -157 -60 412 60 -176 557 vlineto
          147.861526489 -79.2324829102 89.1384735107 -131.76751709 vhcurveto
          endchar
        </CharString>
        <CharString name="macron">
          -372 131 1123 rmoveto
          -65 391 65 vlineto
          endchar
        </CharString>
        <CharString name="minus">
          199 1109 959 rmoveto
          -984 -87 984 hlineto
          endchar
        </CharString>
        <CharString name="mu">
          156 529 53 rmoveto
          -120.666671753 0 -63.3333282471 51.6666717529 -6 103.333328247 rrcurveto
          -1 628 -254 0 0 -60 175 0 0 -1008 80 0 0 272 rlineto
          44.6666717529 -36 49.5 -18 54.3333282471 0 54.3333282471 0 49.6666717529 4.33332824707 45 8.66667175293 45 8.66667175293 73.8333282471 35 102.666671753 61.3333282471 rrcurveto
          8 -104 240 0 0 58 -173 0 0 778 -253 0 0 -60 174 0 0 -603 rlineto
          -126.666671753 -80 -108.333328247 -40 -90 0 rrcurveto
          endchar
        </CharString>
        <CharString name="multiply">
          -397 122 812 rmoveto
          -44 -44 203 -203 -203 -203 44 -44 203 203 204 -204 44 44 -202 204 202 204 -44 45 -204 -204 rlineto
          endchar
        </CharString>
        <CharString name="n">
          168 879 601 rmoveto
          -541 -157 -60 411 60 -175 557 vlineto
          154.181472778 -93.4298400879 82.8185272217 -146.570159912 vhcurveto
          -121.333328247 0 -120.333343506 -39.3333282471 -119.333328247 -78.6666717529 rrcurveto
          -8 100 -248 0 0 -57 180 0 0 -719 -181 0 0 -60 443 0 0 60 -182 0 0 608 rlineto
          113.333328247 79.3333282471 112.333343506 39.6666717529 111.333328247 0 124.491790771 -2.2230682373 55.5471191406 -54.0307159424 0.961090087891 -129.74621582 rrcurveto
          endchar
        </CharString>
        <CharString name="nacute">
          168 601 976 rmoveto
          -77 callsubr
          219 -624 rmoveto
          -60 callsubr
          endchar
        </CharString>
        <CharString name="nine">
          -82 480 1183 rmoveto
          100 0 84.6666717529 -37.3333282471 69.3333282471 -74.6666717529 38.6666717529 -41.3333282471 19 -65.3333435059 -0.66667175293 -89.3333282471 0 -89.3333282471 -40.6666717529 -80.3333435059 -81.3333282471 -71.3333282471 -44 -38.6666717529 -64.6666717529 -19.6666564941 -85.3333282471 -0.66667175293 -84.6666717529 0 -73.1666564941 26.8333282471 -61.6666717529 53.6666717529 -61.6666717529 53.6666717529 -30.8333282471 71.3333282471 0 89 rrcurveto
          185.521286011 126.003570557 127.978713989 190.996429443 vhcurveto
          -6 -677 rmoveto
          58.6666717529 0 62 16 65.3333282471 32 rrcurveto
          -352 -636 68 -46 357 663 rlineto
          90 153.333328247 45 123.5 0 93.6666717529 0 93.6666717529 -39.5 81.6666564941 -79 69.6666717529 -79 69.6666717529 -95.5 34.8333282471 -112 0 -112 0 -91.5 -38.6666717529 -71 -77.3333282471 -71 -77.3333282471 -35.5 -90.3333435059 0 -103.333328247 0 -210.918899536 178.273590088 -151.081100464 213.726409912 0 rrcurveto
          endchar
        </CharString>
        <CharString name="nonbreakingspace">
          endchar
        </CharString>
        <CharString name="nonmarkingreturn">
          endchar
        </CharString>
        <CharString name="notequal">
          -155 468 677 rmoveto
          -374 -64 359 hlineto
          -72 -276 -287 0 0 -61 269 0 -50 -192 60 0 47 192 377 0 0 61 -360 0 73 276 287 0 0 64 -275 0 53 191 rlineto
          -58 hlineto
          endchar
        </CharString>
        <CharString name="ntilde">
          168 509 1111 rmoveto
          -71 callsubr
          370 -510 rmoveto
          -60 callsubr
          endchar
        </CharString>
        <CharString name="numbersign">
          0 269 880 rmoveto
          -175 0 -5 -59 175 0 -30 -364 -176 0 -5 -59 176 0 -33 -398 79 0 33 398 365 0 -33 -398 79 0 33 398 187 0 rlineto
          5 59 -187 0 30 364 188 0 5 59 -188 0 29 354 -79 0 -29 -354 -365 0 29 354 -79 0 rlineto
          15 -777 rmoveto
          30 364 365 0 -30 -364 rlineto
          endchar
        </CharString>
        <CharString name="o">
          -30 767.5 690.5 rmoveto
          74.3333282471 -64.3333282471 37.1666717529 -89.5 0 -114.666671753 0 -114.666671753 -37 -90.1666564941 -74 -65.6666717529 -74 -65.6666717529 -87 -32.8333282471 -100 0 -100 0 -86.3333282471 32.8333282471 -72.6666717529 65.6666717529 -72.6666717529 65.6666717529 -36.3333282471 90 0 114.333328247 0 114.333328247 36.5 89.5 73 64.6666717529 rrcurveto
          73 64.6666717529 86.1666717529 32.3333282471 99.3333282471 0 99.3333282471 0 86.8333435059 -32.1666717529 74.3333282471 -64.3333282471 rrcurveto
          56.5 -588.5 rmoveto
          90 77.3333282471 45 106.666671753 0 136 0 136 -45 106 -90 76 -90 76 -106 38 -122 0 -122 0 -105.333328247 -38 -88.6666717529 -76 -88.6666717529 -76 -44.3333282471 -105.833328247 0 -135.666671753 0 -135.666671753 44.5 -106.666656494 89 -77.6666717529 rrcurveto
          89 -77.6666717529 105.333328247 -38.8333282471 121.666671753 0 121.666671753 0 105.833328247 38.6666717529 90 77.3333282471 rrcurveto
          endchar
        </CharString>
        <CharString name="oacute">
          -30 493 976 rmoveto
          -77 callsubr
          215.5 -534.5 rmoveto
          -59 callsubr
          56.5 -588.5 rmoveto
          -58 callsubr
          endchar
        </CharString>
        <CharString name="ocircumflex">
          -30 318 976 rmoveto
          -72 callsubr
          310.5 -558.5 rmoveto
          -59 callsubr
          56.5 -588.5 rmoveto
          -58 callsubr
          endchar
        </CharString>
        <CharString name="odieresis">
          -30 679 1082 rmoveto
          -100 -106 100 hlineto
          -242 106 rmoveto
          -100 -106 100 hlineto
          330.5 -285.5 rmoveto
          -59 callsubr
          56.5 -588.5 rmoveto
          -58 callsubr
          endchar
        </CharString>
        <CharString name="oe">
          686 509 854 rmoveto
          -126.666671753 0 -106.666656494 -38 -86.6666717529 -76 -86.6666717529 -76 -43.3333282471 -105.833328247 0 -135.666671753 0 -135.666671753 43.5 -106.666656494 87 -77.6666717529 87 -77.6666717529 99.5 -38.8333282471 112 0 209.881774902 0 138.461898804 98.0982666016 60.6563262939 147.901733398 65.4102935791 -146.519042969 148.634994507 -99.4809570312 177.454711914 0 rrcurveto
          133 0 122.166671753 54.3333282471 111.333328247 108.666671753 rrcurveto
          -33 55 rlineto
          -92 -101.333328247 -111.333328247 -50.6666717529 -130.666671753 0 -44 0 -42 7.33332824707 -40 14.6666717529 -137.333328247 50 -74.3333435059 108.666671753 -11.3333282471 167.333328247 rrcurveto
          739 hlineto
          0 128 -34.8333282471 107.666671753 -69.6666717529 87.3333282471 -69.6666717529 87.3333282471 -93.8333282471 43.6666717529 -118 0 -194 0 -131.333328247 -81.3333282471 -68.6666717529 -162.666671753 -62.6877441406 144.664031982 -155.641921997 99.3359680176 -170.670333862 0 rrcurveto
          240.5 -164 rmoveto
          71.6666717529 -64.6666717529 35.8333282471 -89.5 0 -114.333328247 0 -114.333328247 -35.6666717529 -90 -71.3333282471 -65.6666717529 -71.3333282471 -65.6666717529 -84 -32.8333282471 -96.6666717529 0 -96.6666717529 0 -83.6666564941 32.5 -70.6666717529 65 -70.6666717529 65 -35.3333282471 90.3333282471 0 115.666671753 0 115.666671753 35.5 89.8333282471 71 64 rrcurveto
          71 64 83.5 32 96 0 96 0 83.8333282471 -32.3333282471 71.6666717529 -64.6666717529 rrcurveto
          850.5 -224 rmoveto
          -659 hlineto
          4 84.6666717529 33 74.6666564941 62 64.6666717529 62 64.6666717529 81.6666717529 32.3333282471 101.333328247 0 51.3333282471 0 44 -9 36.6666717529 -18 110.666671753 -54 61 -98 11.3333282471 -142 rrcurveto
          endchar
        </CharString>
        <CharString name="ogonek">
          -504 303 -364 rmoveto
          38 0 40.6666717529 15 43.3333282471 30 rrcurveto
          63 vlineto
          -35.3333282471 -14.6666717529 -35 -7.33332824707 -34.6666717529 0 -78.6666717529 0 -39.3333282471 34.6666717529 0 69.3333282471 0 58 30.3333282471 58 60.6666717529 58 rrcurveto
          -53 hlineto
          -80.6666717529 -60.6666717529 -40.3333282471 -75.8333282471 0 -91 0 -91 61.3333282471 -45.5 122.666671753 0 rrcurveto
          endchar
        </CharString>
        <CharString name="ograve">
          -30 493 976 rmoveto
          -89 callsubr
          431.5 -534.5 rmoveto
          -59 callsubr
          56.5 -588.5 rmoveto
          -58 callsubr
          endchar
        </CharString>
        <CharString name="one">
          -436 529 62 rmoveto
          -169 1172 hlineto
          -254 -48 17 -68 156 29 0 -1085 -177 0 0 -62 427 0 rlineto
          endchar
        </CharString>
        <CharString name="onehalf">
          305 398 426 rmoveto
          -76 callsubr
          614 516 rmoveto
          -78.6666717529 0 -64.3333282471 -22.8333282471 -50 -45.6666717529 -50 -45.6666717529 -25 -51.8333282471 0 -58 0 -58 2.66667175293 -40.6666717529 5.33332824707 -23.3333282471 rrcurveto
          78 hlineto
          -15.1783752441 70.0540466309 0.666656494141 55.6666717529 16.51171875 41.2792816162 30.6666717529 73.3333282471 52 36.6666717529 73.3333282471 0 138 0 69 -57.3333282471 0 -114.666671753 0 -102.666671753 -136.333328247 -171.666656494 -272.666671753 -240.666671753 -28 -24.6666717529 -20 -18.3333282471 -12 -12 rrcurveto
          -70 506 72 -398 vlineto
          20 20 32.6666717529 30.6666717529 45.3333282471 41.3333282471 227.333328247 206 113.666671753 155.666671753 0 105.333328247 0 158.72543335 -103.249893188 91.2745666504 -157.750106812 0 rrcurveto
          -270 374 rmoveto
          -103 callsubr
          endchar
        </CharString>
        <CharString name="onequarter">
          314 398 426 rmoveto
          -76 callsubr
          319 -49 rmoveto
          -74 callsubr
          19 -543 rmoveto
          -73 callsubr
          -293 487 rmoveto
          -103 callsubr
          endchar
        </CharString>
        <CharString name="onesuperior">
          -483 439 61 rmoveto
          -76 callsubr
          endchar
        </CharString>
        <CharString name="ordfeminine">
          -229 332 641 rmoveto
          68.6666717529 0 67 22.3333282471 65.3333282471 44.6666717529 rrcurveto
          9 -58 168 0 0 60 -106 0 0 357 rlineto
          126.47467041 -78.6199493408 61.5253295898 -133.380050659 vhcurveto
          -112.666671753 0 -81.6666564941 -24.6666717529 -50.6666717529 -49.3333282471 rrcurveto
          36 -58 rlineto
          44 46 69 23 94 0 rrcurveto
          94 47 -45.6666717529 -91.3333282471 hvcurveto
          -77 vlineto
          -58.6666717529 12 -59.6666564941 6 -60.6666717529 0 rrcurveto
          -152.666671753 -76.3333282471 -53.6666717529 -107.333328247 -127.922515869 77.5776977539 -66.0774841309 131.422302246 hvcurveto
          52.5 291 rmoveto
          57.6666717529 0 48.8333282471 -5 40 -10 rrcurveto
          -145 vlineto
          -50 -44 -68.1666717529 -22 -86.3333282471 0 rrcurveto
          -86.3333282471 -43.1666717529 37 74 99.8052062988 73.0260620117 15.1947937012 114.473937988 hvcurveto
          endchar
        </CharString>
        <CharString name="ordmasculine">
          -160 435 706 rmoveto
          -124.003631592 -119.996368408 96.0652313232 120.934768677 hvcurveto
          0 58 7 44 14 30 42.6666717529 91.3333282471 74.3333282471 45.6666717529 106 0 123.654205322 0 122.149414062 -96.222366333 0.696380615234 -119.777633667 1.0158996582 -174.735168457 -96.9346466064 -95.264831543 -150.581253052 0 rrcurveto
          225 17.5 rmoveto
          63.3333282471 55 31.6666717529 75.3333282471 0 95.6666717529 0 95.6666717529 -40.6666717529 82.8333282471 -81.3333282471 70 -44.6666717529 38.6666717529 -66 19 -87.3333282471 -0.66667175293 -86 0 -74.5 -26.8333282471 -63 -53.6666717529 -63 -53.6666717529 -31.5 -75 0 -96.3333282471 0 -96.3333282471 40.6666717529 -83.1666717529 81.3333282471 -70 rrcurveto
          44.6666717529 -38.6666717529 65.3333282471 -19.6666564941 86 -0.66667175293 86.6666717529 0 75 27.5 63.3333282471 55 rrcurveto
          endchar
        </CharString>
        <CharString name="oslash">
          -37 297 29 rmoveto
          -103 -201 40 -24 107 208 rlineto
          52 -17.3333282471 53 -8.66667175293 54 0 122 0 106 38.6666717529 90 77.3333282471 90 77.3333282471 45 115.166671753 0 153 0 153 -70.6666717529 115.5 -141.333328247 78 rrcurveto
          113 221 -41 24 -115 -224 rlineto
          -62.6666717529 26 -66 13 -69.3333282471 0 -122 0 -105.333328247 -38 -88.6666717529 -76 -88.6666717529 -76 -44.3333282471 -105.666671753 0 -135.333328247 1.87985229492 -201.143493652 103.388458252 -128.978286743 140.731689453 -63.8782196045 rrcurveto
          411 701 rmoveto
          110 -67.3333282471 54.8333282471 -97 -0.33332824707 -126.666671753 -0.33332824707 -126.666671753 -38.8333435059 -97.6666564941 -77.3333282471 -68.6666717529 -34.6666717529 -30.6666717529 -50.6666564941 -27 -66.6666717529 -23.3333282471 -66.6666717529 -23.3333282471 -77.3333282471 3 -88 29.3333282471 rrcurveto
          294 678 rmoveto
          -337 -660 rlineto
          -130.666671753 63.3333282471 -65.3333282471 110.666671753 0 158 0 112.666671753 36.5 88.6666564941 73 64.6666717529 73 64.6666717529 88.8333282471 32.3333282471 104.666671753 0 52 0 52.3333282471 -11.6666717529 52.6666717529 -23.3333282471 rrcurveto
          endchar
        </CharString>
        <CharString name="otilde">
          -30 400 1111 rmoveto
          -71 callsubr
          367.5 -420.5 rmoveto
          -59 callsubr
          56.5 -588.5 rmoveto
          -58 callsubr
          endchar
        </CharString>
        <CharString name="p">
          86 281 715 rmoveto
          -13 125 -231 0 0 -60 165 0 0 -1042 -149 0 0 -60 375 0 0 60 -147 0 0 407 rlineto
          90 -106 116.166671753 -53 142.333328247 0 142.333328247 0 110.5 41.6666717529 78.6666717529 83.3333282471 78.6666717529 83.3333282471 39.3333282471 103 0 122.666671753 0 62.6666717529 -15 65.1666564941 -30 67.6666717529 -51.5387115479 116.248428345 -137.035308838 122.251571655 -158.425979614 0 -162.666671753 0 -135.333328247 -46.3333282471 -108 -92.6666717529 rrcurveto
          365 72 rmoveto
          60 0 52 -11 44 -22 132 -65.3333282471 66 -113.333343506 0 -161.333328247 0 -102.666671753 -32.6666717529 -85.8333282471 -65.3333282471 -69 -65.3333282471 -69 -92.3333435059 -34.5 -119.333328247 0 -119.333328247 0 -114.666671753 56 -110 112 rrcurveto
          426 vlineto
          120 93.3333282471 121.666671753 46.6666717529 123.333328247 0 rrcurveto
          endchar
        </CharString>
        <CharString name="paragraph">
          -14 709 661 rmoveto
          -684 81 1194 166 63 -560 vlineto
          -106 0 -83 -27.8333282471 -60 -55.6666717529 -60 -55.6666717529 -30 -66.1666564941 0 -76.6666717529 0 -76.6666717529 30 -67.6666564941 60 -58.6666717529 60 -58.6666717529 83 -29.3333282471 106 0 rrcurveto
          36 -684 81 684 hlineto
          endchar
        </CharString>
        <CharString name="parenleft">
          -454 508 1200 rmoveto
          68 vlineto
          -66.6666717529 -16 -58.6666564941 -29.3333282471 -50.6666717529 -42.6666717529 -150.666671753 -126.666671753 -75.3333282471 -188 0 -249.333328247 0 -157.333328247 34.8333282471 -140.166671753 69.6666717529 -123 69.6666717529 -123 99.1666564941 -77.5 128.666671753 -32 rrcurveto
          68 vlineto
          -58 20.6666717529 -49 30.3333282471 -40 40 -113.333328247 114.666671753 -56.6666717529 164.666656494 0 214.666671753 0 299.240432739 113.403717041 212.106948853 203.596282959 72.6526184082 rrcurveto
          endchar
        </CharString>
        <CharString name="parenright">
          -446 394 616 rmoveto
          0 -298.993789673 -112.309829712 -212.474899292 -203.690170288 -73.5313110352 rrcurveto
          -68 vlineto
          66.6666717529 16.6666717529 58.6666564941 29.6666564941 50.6666717529 42.6666717529 150.666671753 126.666671753 75.3333282471 188 0 249.333328247 0 156.666671753 -35 139.833328247 -70 123 -70 123 -99 77.5 -128 32 rrcurveto
          -68 vlineto
          213.467758179 -79.4298553467 102.532241821 -220.343933105 0 -284.226211548 rrcurveto
          endchar
        </CharString>
        <CharString name="partialdiff">
          -147 131 363 rmoveto
          0 89.3333282471 39.6666717529 79.3333435059 79.3333282471 69.3333282471 43.3333282471 38 64.3333435059 19 85.3333282471 0 85.3333282471 0 73.8333435059 -27.6666717529 62.3333282471 -55.3333282471 62.3333282471 -55.3333282471 31.1666717529 -72.8333435059 0 -90.3333282471 rrcurveto
          -186.809249878 -119.661590576 -120.690750122 -191.338409424 -190.39112854 -125.60887146 128.608581543 185.391418457 vhcurveto
          212 998 rmoveto
          -67 -47 352 -636 rlineto
          -65.3333282471 32 -75 16 -84.6666717529 0 -84.6666717529 0 -80.1666564941 -34.6666717529 -75.6666717529 -69.3333282471 -75.6666717529 -69.3333282471 -37.8333282471 -86.1666717529 0 -103 0 -103 35.3333282471 -90.1666717529 70.6666717529 -77.3333282471 70.6666717529 -77.3333282471 106.333328247 -38.6666717529 142 0 83.3333282471 0 81 34.6666717529 78.6666717529 69.3333282471 rrcurveto
          78.6666717529 69.3333282471 39.3333282471 95.3333435059 0 121.333328247 0 70 -44.6666717529 110 -89.3333282471 150 rrcurveto
          endchar
        </CharString>
        <CharString name="percent">
          576 1446 1310 rmoveto
          -1105 -1310 45 -47 1101 1317 rlineto
          -767 -321 rmoveto
          -107 callsubr
          -21 -225.5 rmoveto
          -106 callsubr
          862 -440.5 rmoveto
          -107 callsubr
          -21 -225.5 rmoveto
          -106 callsubr
          endchar
        </CharString>
        <CharString name="period">
          -631 263 120 rmoveto
          -104 callsubr
          endchar
        </CharString>
        <CharString name="periodcentered">
          -665 242 815 rmoveto
          -102 callsubr
          endchar
        </CharString>
        <CharString name="pi">
          103 168 709 rmoveto
          37 hlineto
          4.66667175293 64.6666717529 25.3333282471 32.3333282471 46 0 rrcurveto
          49 0 -43 -476 rlineto
          -4 -46.6666717529 -3.16667175293 -40.6666564941 -2.33332824707 -34.6666717529 -6.12713623047 -91.0316619873 -17.4313659668 -62.8471069336 -91.9414978027 -1.1212310791 rrcurveto
          -57 vlineto
          70 0 50.5 23.3333282471 31 46.6666717529 31 46.6666717529 19.5 80.6666564941 8 114.666671753 rrcurveto
          35 498 362 0 -1 -627 rlineto
          -128 39.6666717529 -64 79.3333282471 vhcurveto
          28 0 32 8.66667175293 36 17.3333282471 rrcurveto
          45 vlineto
          -22 -6 -18.6666717529 -3 -15.3333282471 0 rrcurveto
          -48 -24 39.6666717529 79.3333282471 hvcurveto
          638 108 30 -681 vlineto
          -84.8605041504 -29.1394958496 -30.0384368896 -96.9615631104 hvcurveto
          endchar
        </CharString>
        <CharString name="plus">
          -223 439 598 rmoveto
          384 -62 -384 -357 -64 357 -396 62 396 355 64 vlineto
          endchar
        </CharString>
        <CharString name="plusminus">
          -133 840 hmoveto
          62 -774 -62 vlineto
          420 598 rmoveto
          384 -62 -384 -356 -64 356 -396 62 396 356 64 vlineto
          endchar
        </CharString>
        <CharString name="product">
          endchar
        </CharString>
        <CharString name="q">
          107 473.5 854 rmoveto
          -87.6666717529 0 -78.5 -24.3333282471 -69.3333282471 -48.6666717529 -121.333328247 -84.6666717529 -60.3333435059 -125 0.66667175293 -165.333328247 0 -112.666671753 39.3333282471 -98.1666564941 78.6666717529 -83.6666717529 78.6666717529 -83.6666717529 110.5 -41.8333282471 142.333328247 0 142.333328247 0 116.166671753 37 90 74 rrcurveto
          -359 -147 -60 375 60 -148 1042 164 60 -230 vlineto
          -14 -125 rlineto
          -67.2806243896 75.1039581299 -161.329116821 63.8960418701 -152.890258789 0 rrcurveto
          -336.5 -402 rmoveto
          0 74 31 74.3333282471 62 74.6666717529 62 74.6666717529 89.6666717529 37.3333282471 117.333328247 0 117.333328247 0 118.666671753 -46.6666717529 120 -93.3333282471 rrcurveto
          -484 vlineto
          -99.3333282471 -73.3333282471 -112 -36.6666717529 -124.666671753 0 -251.142959595 0 -130.857040405 146.885116577 0 252.114883423 rrcurveto
          endchar
        </CharString>
        <CharString name="question">
          -307 325 1151 rmoveto
          76.6666717529 0 59.1666564941 -22.1666717529 41.6666717529 -44.3333282471 41.6666717529 -44.3333282471 20.8333282471 -48.8333435059 0 -53.3333282471 0 -53.3333282471 -8.33332824707 -43.1666717529 -16.6666717529 -33 -16.6666717529 -33 -39.3333282471 -44.8333282471 -62 -56.6666717529 -94.6666717529 -86.6666717529 -47.3333282471 -128.333328247 0 -170 rrcurveto
          33 hlineto
          4.66667175293 89.3333282471 17.5 70.1666717529 30.3333282471 51 30.3333282471 51 41.3333435059 48.1666717529 52.3333282471 45.3333282471 52.3333282471 45.3333282471 38.5 40.6666717529 24.6666717529 36 24.6666717529 36 12.3333282471 46.6666717529 0 57.3333282471 0 209.684356689 -136.771392822 108.249954224 -190.228607178 -0.434310913086 -146 -0.33332824707 -98.3333282471 -61.1666717529 -50.6666717529 -122 rrcurveto
          61 -36 rlineto
          40.6666717529 98 81.3333282471 49 122 0 rrcurveto
          24 -1174 rmoveto
          79 -84 -79 vlineto
          endchar
        </CharString>
        <CharString name="questiondown">
          -342 378 49 rmoveto
          -76.6666717529 0 -59.1666564941 22.1666717529 -41.6666717529 44.3333282471 -41.6666717529 44.3333282471 -20.8333282471 48.8333435059 0 53.3333282471 0 53.3333282471 8.16667175293 43.1666717529 16.3333282471 33 16.3333282471 33 39.1666717529 44.8333282471 62 56.6666717529 94.6666717529 86.6666717529 47.6666564941 128.333328247 0.66667175293 170 rrcurveto
          -33 hlineto
          -6 -91.3333282471 -17.8333282471 -70.6666717529 -29.6666717529 -50 -29.6666717529 -50 -41 -47.6666717529 -52.3333282471 -45.3333282471 -52.3333282471 -45.3333282471 -38.5 -40.6666717529 -24.6666717529 -36 -24.6666717529 -36 -12.3333282471 -46.6666717529 0 -57.3333282471 0 -209.684356689 136.771392822 -108.249954224 190.228607178 0.434310913086 146 0.33332824707 98.3333282471 61.1666717529 50.6666717529 122 rrcurveto
          -61 36 rlineto
          -40.6666717529 -98 -81.3333282471 -49 -122 0 rrcurveto
          -24 1174 rmoveto
          -79 84 79 vlineto
          endchar
        </CharString>
        <CharString name="quotedbl">
          -491 383 854 rmoveto
          33 380 -91 0 26 -380 rlineto
          -161 hmoveto
          33 380 -92 0 27 -380 rlineto
          endchar
        </CharString>
        <CharString name="quotedblbase">
          -370 274 116 rmoveto
          -105 callsubr
          251 122 rmoveto
          -126 -120 61 hlineto
          0 -74.4566955566 -6.48933410645 -36.7038726807 -63.5106658936 -20.8394317627 rrcurveto
          -44 vlineto
          90 45 58 116 hvcurveto
          endchar
        </CharString>
        <CharString name="quotedblleft">
          -407 361 959 rmoveto
          -46 callsubr
          -226 -122 rmoveto
          -46 callsubr
          endchar
        </CharString>
        <CharString name="quotedblright">
          -407 269 1234 rmoveto
          -101 callsubr
          226 123 rmoveto
          -101 callsubr
          endchar
        </CharString>
        <CharString name="quoteleft">
          -633 135 959 rmoveto
          -46 callsubr
          endchar
        </CharString>
        <CharString name="quoteright">
          -633 269 1234 rmoveto
          -101 callsubr
          endchar
        </CharString>
        <CharString name="quotesinglbase">
          -622 274 116 rmoveto
          -105 callsubr
          endchar
        </CharString>
        <CharString name="quotesingle">
          -684 190 854 rmoveto
          33 380 -92 0 27 -380 rlineto
          endchar
        </CharString>
        <CharString name="r">
          -286 573.5 787 rmoveto
          57.6666717529 0 56.8333282471 -13.6666717529 56 -27.3333282471 rrcurveto
          12 68 rlineto
          -59.3333282471 26.6666717529 -56.5 13.3333282471 -53.6666717529 0 -122.671157837 0 -72.4833068848 -97.6884613037 -28.3455352783 -104.311538696 rrcurveto
          -12 184 -250 0 0 -57 183 0 0 -719 -184 0 0 -60 446 0 0 60 -183 0 0 408 rlineto
          159.660797119 68.9207305908 159.339202881 141.579269409 vhcurveto
          endchar
        </CharString>
        <CharString name="radical">
          -700 endchar
        </CharString>
        <CharString name="rcaron">
          -286 320 1249 rmoveto
          -51 callsubr
          148.5 -238 rmoveto
          -52 callsubr
          endchar
        </CharString>
        <CharString name="rcommaaccent">
          -286 470 -114 rmoveto
          -55 callsubr
          103.5 1023 rmoveto
          -52 callsubr
          endchar
        </CharString>
        <CharString name="registered">
          424 998 791 rmoveto
          116.534103394 -92.6556396484 80.4658966064 -123.344360352 vhcurveto
          -378 -57 93 -615 -86 -58 251 58 -96 274 158 hlineto
          197 -332 151 0 0 58 -102 0 -168 274 rlineto
          112.508743286 7.33752441406 83.4912567139 79.5121917725 0 114.150283813 rrcurveto
          -216 -143 rmoveto
          -216 283 216 hlineto
          46.6666717529 0 36.8333282471 -14.1666717529 27 -28.3333282471 27 -28.3333282471 13.5 -28.3333435059 0 -28.3333282471 rrcurveto
          -102.640853882 -57.9134368896 -52.8591461182 -93.0865631104 vhcurveto
          -473.5 376 rmoveto
          -80 callsubr
          419.5 -1047 rmoveto
          -79 callsubr
          endchar
        </CharString>
        <CharString name="ring">
          -444 418 1165.5 rmoveto
          -69.6965026855 -49.044128418 -56.8034973145 -72.455871582 -65.4452819824 -58.0547180176 53.4071502686 59.5928497314 92.6666717529 45.6666717529 46.3333282471 91.3333282471 60.8746490479 47.1253509521 -63.3521881104 -62.1478118896 vhcurveto
          -122 170.5 rmoveto
          -108.322662354 -62.6773376465 -76.6815032959 -94.3184967041 hvcurveto
          0 -109.040939331 73.825012207 -61.7621612549 97.174987793 0.803100585938 107.764770508 2.56582641602 62.2352294922 70.776260376 0 96.657913208 rrcurveto
          108.718566895 -73.6700897217 62.2814331055 -96.3299102783 vhcurveto
          endchar
        </CharString>
        <CharString name="s">
          -160 811 227.5 rmoveto
          0 79 -26.1666717529 55.8333282471 -52.3333282471 32.6666717529 -52.3333282471 32.6666717529 -76.3333435059 23.5 -100.333328247 14.3333282471 -100.333328247 14.3333282471 -65.1666717529 12.8333435059 -30 11.3333282471 -62 22.6666717529 -31 38.6666564941 0 54.6666717529 0 30.6666717529 6.66667175293 25.3333282471 13.3333282471 20 39.3333282471 60 72.3333435059 30 105.333328247 0 rrcurveto
          105.333328247 0 77.3333435059 -30.3333282471 49.3333282471 -60.6666717529 rrcurveto
          -123 70 264 -70 -60 vlineto
          -57.3333282471 51.3333282471 -84.6666717529 25.6666717529 -112 0 -37.3333282471 0.66667175293 -36.6666717529 -4.33334350586 -36 -9.33332824707 -125.333328247 -32 -62.3333435059 -73.3333282471 0.66667175293 -114.666671753 0 -76 30 -53 60 -30 60 -30 99.6666717529 -22.8333282471 139.333328247 -15.6666717529 139.333328247 -15.6666717529 69.6666717529 -49.8333282471 0 -84 rrcurveto
          0 -42 -7 -31.6666717529 -14 -21.3333282471 -42 -62.6666717529 -86.6666717529 -31.5 -131.333328247 -0.33332824707 -131.333328247 -0.33332824707 -84.3333435059 38.1666564941 -37.3333282471 76.6666717529 rrcurveto
          100 -68 -268 68 73 vlineto
          58 -58 83.3333282471 -29 108.666671753 0 188.505050659 0 175.494949341 65.1242218018 0 176.375778198 rrcurveto
          endchar
        </CharString>
        <CharString name="scaron">
          -160 362 1249 rmoveto
          -51 callsubr
          344 -797.5 rmoveto
          -49 callsubr
          endchar
        </CharString>
        <CharString name="section">
          -71 512 104 rmoveto
          -157.333328247 0 -97.3333435059 38.6666717529 -37.3333282471 77.3333282471 rrcurveto
          63 -68 -231 68 73 vlineto
          58.6666717529 -58.6666717529 92.6666564941 -29.3333282471 126.666671753 0 60 0.66667175293 50.6666717529 6.33332824707 41.3333282471 12 117.333328247 34.6666717529 58.6666717529 64 0 93.3333282471 0 69.3333282471 -32 53 -64 36.6666717529 68 37.3333282471 34.3333282471 55.5 0.66667175293 73.6666717529 0.66667175293 73.6666717529 -26 51.6666564941 -52.6666717529 29.6666717529 rrcurveto
          -52.6666717529 29.6666717529 -76.3333282471 21.8333282471 -100 14 -100 14 -65 12.6666717529 -30 11.3333282471 -62 22.6666717529 -31 36 0 49.3333282471 0 26.6666717529 6.66667175293 21.3333282471 13.3333282471 16 38.6666717529 46.6666717529 72.1666564941 23.3333282471 105.666671753 0 105.666671753 0 77.5 -30.3333282471 49.3333282471 -60.6666717529 rrcurveto
          -87 70 228 -70 -60 vlineto
          -57.3333282471 51.3333282471 -84.6666717529 25.6666717529 -112 0 -36.6666717529 0.66667175293 -36.3333282471 -3.66667175293 -36 -8 -125.333328247 -26.6666717529 -62.6666717529 -62 0 -97.3333282471 0 -72 35 -54 70 -36 -70 -36.6666717529 -35 -54.6666564941 0 -72.6666717529 0 -72.6666717529 26 -50.1666564941 52 -27.6666717529 rrcurveto
          52 -27.6666717529 74.6666717529 -20.8333282471 97.3333282471 -14 97.3333282471 -14 66 -13.6666717529 34.6666717529 -13.3333282471 61.3333282471 -24 31 -35.1666717529 0.66667175293 -46.3333282471 0 -107.738357544 -119.115539551 -46.7616424561 -117.884460449 0 rrcurveto
          162 335 rmoveto
          -141.306365967 31.9938964844 -294.693634033 -6.10585021973 0 149.111953735 0 74 28.6666717529 48 57.3333282471 22 49.5512390137 -15.1406555176 165.588668823 -20.8898773193 54.8600921631 -11.9694671631 106.666671753 -23.3333282471 53.3333282471 -47 0 -70.6666717529 0 -62.6666717529 -26.6666717529 -43.3333282471 -53.3333282471 -24 rrcurveto
          endchar
        </CharString>
        <CharString name="semicolon">
          -594 292 316 rmoveto
          -101 callsubr
          -5 622 rmoveto
          -102 callsubr
          endchar
        </CharString>
        <CharString name="seven">
          -137 368 52 rmoveto
          -164 -63 427 63 -181 hlineto
          0 104 6 98.6666717529 12 93.3333282471 38.6666717529 290.666671753 134 270 229.333328247 249.333328247 rrcurveto
          76 -792 -318 77 248 627 vlineto
          -276 -311.333328247 -138 -370.666671753 0 -430 rrcurveto
          endchar
        </CharString>
        <CharString name="six">
          -149 441 49 rmoveto
          -99.3333282471 0 -84.3333435059 37 -69.3333282471 74 -38.6666717529 40.6666717529 -19.3333282471 65.5 0 90.3333282471 0 193.302566528 148.561126709 108.197433472 201.438873291 0 62 0 61.8333282471 -26.8333282471 61.6666717529 -53.6666717529 61.6666717529 -53.6666717529 30.8333282471 -71.6666564941 0 -89.6666717529 0 -185.3046875 -127.242218018 -128.1953125 -189.757781982 0 rrcurveto
          5 677 rmoveto
          -58.6666717529 0 -61.6666564941 -16 -64.6666717529 -32 rrcurveto
          351 636 -67 47 -357 -664 rlineto
          -90 -146.666671753 -45 -122 0 -97.3333282471 0 -97.3333282471 39.3333282471 -83.3333435059 78.6666717529 -69.3333282471 78.6666717529 -69.3333282471 95.5 -34.6666717529 112.333328247 0 112.333328247 0 91.6666717529 38.6666717529 71 77.3333282471 71 77.3333282471 35.5 90.3333435059 0 103.333328247 0 210.911453247 -179.309967041 151.088546753 -213.690032959 0 rrcurveto
          endchar
        </CharString>
        <CharString name="slash">
          -497 415 1255 rmoveto
          -103 callsubr
          endchar
        </CharString>
        <CharString name="space">
          endchar
        </CharString>
        <CharString name="sterling">
          62 291 960.5 rmoveto
          0 -85 25 -90.1666717529 50 -95.3333282471 14 -26.6666717529 13.6666717529 -26.3333282471 13.3333282471 -26 rrcurveto
          -223 -49 248 hlineto
          39.3333282471 -94 19.6666717529 -75.1666717529 0 -56.3333282471 0 -56.3333282471 -3.33332824707 -44.1666717529 -6.66667175293 -32 -47.3333282471 64 -62.5 32 -77.6666717529 0 rrcurveto
          -133.7943573 -110.7056427 -49.7229614258 -123.277038574 -116 68.6666717529 -58 137.333328247 hvcurveto
          137.333328247 0 90.3333435059 51.3333282471 43.3333282471 102.666671753 68 -90.6666717529 79 -45.3333282471 90 0 90 0 65 22.8333282471 40 45.6666717529 40 45.6666717529 20 44.6666564941 0 43.6666717529 0 43.6666717529 -1 29.5 -2 15.3333282471 rrcurveto
          -50 hlineto
          -145.333328247 -61.6666717529 -72.6666717529 -123.333328247 vhcurveto
          -100 0 -79 37.3333282471 -58 74.6666717529 17.3333282471 52 8.66667175293 59 0 66 0 66 -15.3333282471 76.3333282471 -30.6666717529 86.6666717529 rrcurveto
          359 49 -375 hlineto
          -16 30 -15.6666717529 29 -15.3333282471 28 -54.6666717529 98.6666717529 -27.3333282471 85.3333282471 0 72 rrcurveto
          156.666671753 90.3333282471 78.3333282471 180.666671753 156 78 -73.6666717529 -147.333328247 vhcurveto
          76 hlineto
          191.024047852 -121.664367676 95.9759521484 -199.335632324 -194.371276855 -152.628723145 -109.341003418 -185.158996582 vhcurveto
          -10 -716.5 rmoveto
          74.6666717529 0 61.6666564941 -30 48.6666717529 -60 -11.3333282471 -46.6666717529 -20.8333435059 -33.1666564941 -30.3333282471 -19.6666717529 -55.1172485352 -35.7353515625 -104.655380249 -44.0435180664 -72.2273712158 52.2788696289 -35 25.3333282471 -17.5 27.3333435059 0 29.3333282471 0 90 54 45 108 0 rrcurveto
          endchar
        </CharString>
        <CharString name="summation">
          endchar
        </CharString>
        <CharString name="t">
          -487 37 781 rmoveto
          125 -531 hlineto
          0 -30.6666717529 1.33332824707 -30 2.66667175293 -29.3333282471 8 -106.666671753 69.6666717529 -53.3333282471 131.333328247 0 rrcurveto
          81 60 -78 hlineto
          -62.6666717529 0 -38.5 12.5 -14.3333282471 25 -14.3333282471 25 -7.16667175293 46.8333282471 0 68.6666717529 rrcurveto
          543 199 55 -199 330 vlineto
          -79 -18 0 -312 -125 0 rlineto
          endchar
        </CharString>
        <CharString name="thorn">
          49 252 1234 rmoveto
          -228 -60 149 -1474 -165 -60 241 hlineto
          3 485 rlineto
          28.6666717529 -32 51.6666564941 -32.3333282471 74.6666717529 -32.6666717529 74.6666717529 -32.6666717529 76.6666564941 -16.3333282471 78.6666717529 0 78.6666717529 0 73.3333282471 24 68 48 128.666671753 90 64.3333282471 127.666671753 0 165.333328247 0 112.666671753 -39.3333282471 98.1666564941 -78.6666717529 83.6666717529 -78.6666717529 83.6666717529 -110.5 41.8333282471 -142.333328247 0 rrcurveto
          -142.333328247 0 -116.166671753 -53 -90 -106 rrcurveto
          719 -307 rmoveto
          -88 callsubr
          endchar
        </CharString>
        <CharString name="three">
          -37 636 660 rmoveto
          126.495910645 37.6796264648 91.5040893555 99.3703460693 0 133.450027466 0 99.6666717529 -40 79.1666564941 -80 58.6666717529 -80 58.6666717529 -92.3333282471 29.3333282471 -104.666671753 0 -186.666671753 0 -127.666656494 -66.3333282471 -68.6666717529 -132.666671753 rrcurveto
          71 -31 rlineto
          53.3333282471 104.666671753 103.333343506 52.3333282471 153.333328247 0 82 0 72.8333282471 -22.1666717529 63.6666717529 -44.3333282471 63.6666717529 -44.3333282471 31.8333282471 -62.1666717529 0 -80 -0.66667175293 -42.6666717529 -7 -35 -13.3333282471 -27.3333282471 -42.6666717529 -85.3333282471 -110 -42.6666717529 -177.333328247 0 rrcurveto
          -94 -80 39 hlineto
          32.6666717529 0 33.6666564941 -0.66667175293 34.6666717529 -1.33332824707 218.666671753 -8.66667175293 109.333328247 -89 0 -169.333328247 0 -87.3333282471 -32.5 -71.5 -65 -55.6666717529 -65 -55.6666717529 -76.5 -27.8333282471 -88 0 -165.333328247 0 -117.333343506 69 -69.3333282471 138 rrcurveto
          -64 -41 rlineto
          65.8465118408 -138.748001099 156.027282715 -96.2519989014 167.626205444 0 123.666671753 0 103.833328247 34.5 84 69 84 69 42 83.8333282471 0 98.6666717529 0 182.525558472 -97.0547790527 107.439865112 -142.945220947 34.034576416 rrcurveto
          endchar
        </CharString>
        <CharString name="threequarters">
          566 555 1001 rmoveto
          0 -60 -35.3333282471 -41.6666717529 -70.6666717529 -23.3333282471 -26.6666717529 -9.33332824707 -55 -4.33334350586 -83.3333282471 0.66667175293 rrcurveto
          -34 -74 36 hlineto
          88.6666717529 0.66667175293 61.1666564941 -7 33.6666717529 -14.6666717529 67.9530944824 -29.6033325195 34.5469055176 -37.4958648682 0 -97.9008026123 0 -103.794418335 -108.2890625 -81.205581665 -107.7109375 0 -111.333328247 0 -79.3333435059 49 -47.3333282471 98 rrcurveto
          -60 -39 rlineto
          46.2772979736 -101.810058594 114.867477417 -72.1899414062 118.855224609 0 88 0 73.6666717529 24.8333282471 59.3333282471 49.6666717529 59.3333282471 49.6666717529 29.6666717529 56.1666564941 0 62.6666717529 0 120.666671753 -48 78 -96 35.3333282471 86 36 43 57.6666717529 0 79.3333282471 0 79.3333282471 -29 60.6666717529 -58 42 rrcurveto
          -58 42 -65.3333282471 21 -72.6666717529 0 -132 0 -91.6666717529 -50 -51.3333282471 -100 rrcurveto
          66 -30 rlineto
          38 73.3333282471 69 36.6666717529 100 0 113.66583252 0 93.3341674805 -59.1603088379 0 -116.839691162 rrcurveto
          373 -685 rmoveto
          -74 callsubr
          19 -543 rmoveto
          -73 callsubr
          -269 487 rmoveto
          -103 callsubr
          endchar
        </CharString>
        <CharString name="threesuperior">
          -223 589 651.5 rmoveto
          0 -49.6666717529 -16.5 -38 -33 -26.3333282471 -33 -26.3333282471 -73.8333282471 -13.1666717529 -114.666671753 0 rrcurveto
          -34 -74 36 hlineto
          163.301818848 122.698181152 -28.2783355713 -137.721664429 hvcurveto
          0 -138.913925171 -101.698379517 -67.005355835 -128.301620483 0.419281005859 -102 0.33332824707 -74.6666717529 49.1666717529 -47.3333282471 98 rrcurveto
          -60 -39 rlineto
          46.870513916 -100.771591187 114.578720093 -72.2795410156 118.050765991 -0.448867797852 164.717208862 -0.62629699707 145.782791138 102.732376099 0 160.393920898 0 107.333328247 -48 71.3333435059 -96 35.3333282471 86 36 43 57.6666717529 0 79.3333282471 0 79.3333282471 -37.3333282471 66.6666717529 -74.6666717529 54 -41.3333282471 30 -57 15 -72.6666717529 0 rrcurveto
          -132 0 -91.6666717529 -50 -51.3333282471 -100 rrcurveto
          66 -30 rlineto
          38 73.3333282471 69 36.6666717529 100 0 104.46105957 0 102.53894043 -57.5964813232 0 -102.903518677 rrcurveto
          endchar
        </CharString>
        <CharString name="tilde">
          -317 249 1157 rmoveto
          -72.6666717529 0 -41.3333282471 -43 -10 -86 rrcurveto
          38 hlineto
          8 27.3333282471 16.1666717529 13.6666717529 24.3333282471 0 24.3333282471 0 40.8333435059 -7.83332824707 57.3333282471 -15.6666717529 57.3333282471 -15.6666717529 43.6666717529 -7.83332824707 30 0 72.6666717529 0 41.3333282471 43.6666717529 10 87.3333282471 rrcurveto
          -37 hlineto
          -10 -28.6666717529 -19.3333282471 -14.3333282471 -28.6666717529 0 -48.8694000244 0 -147.562469482 47 -48.5681304932 0 rrcurveto
          endchar
        </CharString>
        <CharString name="trademark">
          600 642 1236 rmoveto
          -552 -210 56 157 188 -523 -86 -48 232 48 -87 523 192 -157 57 hlineto
          502 -266 rmoveto
          -229 476 -141 0 0 -49 79 0 0 -526 -79 0 0 -49 216 0 0 49 -80 0 0 454 234 -477 226 476 0 -453 -79 0 rlineto
          -49 215 49 -78 526 78 49 -141 vlineto
          endchar
        </CharString>
        <CharString name="two">
          -41 793 932 rmoveto
          0 -73.3333282471 -38.5 -92.6666717529 -77 -112 -77 -112 -168.833328247 -172 -260.666671753 -232 -27.3333282471 -24 -20.6666717529 -19.3333282471 -14 -14.6666717529 rrcurveto
          -80 710 78 -600 vlineto
          24 23.3333282471 46.0194244385 41.9061584473 68.0388336182 60.4789581299 68.0388336182 60.4789733887 84.9753875732 83.2068634033 101.911941528 105.934783936 101.911941528 105.934783936 75.4762878418 102.322387695 49.0406188965 98.7099761963 49.0406341553 98.7099761963 4.52890014648 98.5645904541 -39.9828033447 98.4192199707 -54.6666717529 132.666671753 -112.333328247 66.3333282471 -170 0 -216.018264771 0 -163.981735229 -137.175384521 0 -211.824615479 rrcurveto
          0 -48 4 -42.6666717529 8 -37.3333282471 rrcurveto
          85 hlineto
          -10.6666717529 38.6666717529 -5.33332824707 40.3333282471 0 42 0 42 7.33332824707 39 14.6666717529 36 45.3333282471 112 102.666671753 55.6666717529 160 -0.66667175293 135.753234863 0 111.246765137 -111.48399353 0 -139.51600647 rrcurveto
          endchar
        </CharString>
        <CharString name="twosuperior">
          -223 151 656.5 rmoveto
          0 -57.6666717529 2.66667175293 -40.5 5.33332824707 -23.3333282471 rrcurveto
          78 hlineto
          -8.66667175293 40 -4.33332824707 32 0 24 rrcurveto
          116.975646973 85.7519073486 64.0243530273 108.248092651 122.666671753 61.3333282471 -59 -118 vhcurveto
          0 -100 -136.333328247 -170 -272.666671753 -240 -28 -24.6666717529 -20 -18.3333282471 -12 -12 rrcurveto
          -70 506 72 -398 vlineto
          20 20 32.6666717529 30.6666717529 45.3333282471 41.3333282471 227.333328247 206 113.666671753 155.666671753 0 105.333328247 rrcurveto
          166.666671753 -96.6666717529 83.3333282471 -193.333328247 -114.843170166 -124.156829834 -109.726104736 -114.773895264 vhcurveto
          endchar
        </CharString>
        <CharString name="u">
          68 268 239 rmoveto
          597 -254 -60 175 -553 vlineto
          -125.975982666 91.7864837646 -111.024017334 125.213516235 vhcurveto
          62 0 53.5 4.33332824707 45 8.66667175293 45 8.66667175293 73.8333282471 35 102.666671753 61.3333282471 rrcurveto
          8 -104 240 0 0 58 -173 0 0 778 -253 0 0 -60 174 0 0 -603 rlineto
          -126.666671753 -80 -108.333328247 -40 -90 0 -129.796218872 2.12780761719 -61.2037811279 50.9567260742 0 132.915466309 rrcurveto
          endchar
        </CharString>
        <CharString name="uacute">
          68 509 976 rmoveto
          -77 callsubr
          -300 -986 rmoveto
          -57 callsubr
          endchar
        </CharString>
        <CharString name="ucircumflex">
          68 335 976 rmoveto
          -72 callsubr
          -206 -1010 rmoveto
          -57 callsubr
          endchar
        </CharString>
        <CharString name="udieresis">
          68 696 1082 rmoveto
          -100 -106 100 hlineto
          -242 106 rmoveto
          -100 -106 100 hlineto
          -186 -737 rmoveto
          -57 callsubr
          endchar
        </CharString>
        <CharString name="ugrave">
          68 509 976 rmoveto
          -89 callsubr
          -84 -986 rmoveto
          -57 callsubr
          endchar
        </CharString>
        <CharString name="underscore">
          -18 871 -62 rmoveto
          62 -732 -62 vlineto
          endchar
        </CharString>
        <CharString name="uni0001">
          endchar
        </CharString>
        <CharString name="uni0002">
          endchar
        </CharString>
        <CharString name="uni0003">
          endchar
        </CharString>
        <CharString name="uni0004">
          endchar
        </CharString>
        <CharString name="uni0005">
          endchar
        </CharString>
        <CharString name="uni0006">
          endchar
        </CharString>
        <CharString name="uni0007">
          endchar
        </CharString>
        <CharString name="uni0008">
          endchar
        </CharString>
        <CharString name="uni0009">
          endchar
        </CharString>
        <CharString name="uni0010">
          endchar
        </CharString>
        <CharString name="uni0011">
          endchar
        </CharString>
        <CharString name="uni0012">
          endchar
        </CharString>
        <CharString name="uni0013">
          endchar
        </CharString>
        <CharString name="uni0014">
          endchar
        </CharString>
        <CharString name="uni0015">
          endchar
        </CharString>
        <CharString name="uni0016">
          endchar
        </CharString>
        <CharString name="uni0017">
          endchar
        </CharString>
        <CharString name="uni0018">
          endchar
        </CharString>
        <CharString name="uni0019">
          endchar
        </CharString>
        <CharString name="uni00AD">
          endchar
        </CharString>
        <CharString name="uni0200">
          287 526 1377 rmoveto
          -48 callsubr
          364 -249 rmoveto
          -48 callsubr
          290 -392 rmoveto
          -100 callsubr
          -442 -607 rmoveto
          -99 callsubr
          endchar
        </CharString>
        <CharString name="uni0201">
          -53 373 976 rmoveto
          -48 callsubr
          364 -249 rmoveto
          -48 callsubr
          -87.5 -1239 rmoveto
          -64 callsubr
          -180.5 245.5 rmoveto
          -63 callsubr
          endchar
        </CharString>
        <CharString name="uni0202">
          287 351 1377 rmoveto
          -47 callsubr
          521 -143 rmoveto
          -100 callsubr
          -442 -607 rmoveto
          -99 callsubr
          endchar
        </CharString>
        <CharString name="uni0203">
          -53 159 976 rmoveto
          -47 callsubr
          182.5 -990 rmoveto
          -64 callsubr
          -180.5 245.5 rmoveto
          -63 callsubr
          endchar
        </CharString>
        <CharString name="uni0204">
          215 487 1377 rmoveto
          -48 callsubr
          364 -249 rmoveto
          -48 callsubr
          -188 -462 rmoveto
          -98 callsubr
          endchar
        </CharString>
        <CharString name="uni0205">
          -100 353 976 rmoveto
          -48 callsubr
          364 -249 rmoveto
          -48 callsubr
          458 -1076 rmoveto
          -62 callsubr
          -55 317 rmoveto
          -61 callsubr
          endchar
        </CharString>
        <CharString name="uni0206">
          215 363 1377 rmoveto
          -47 callsubr
          -8 -213 rmoveto
          -98 callsubr
          endchar
        </CharString>
        <CharString name="uni0207">
          -100 193 976 rmoveto
          -47 callsubr
          674 -827 rmoveto
          -62 callsubr
          -55 317 rmoveto
          -61 callsubr
          endchar
        </CharString>
        <CharString name="uni0208">
          -422 183 1377 rmoveto
          -48 callsubr
          364 -249 rmoveto
          -48 callsubr
          266 -392 rmoveto
          -97 callsubr
          endchar
        </CharString>
        <CharString name="uni0209">
          -465 177 976 rmoveto
          -48 callsubr
          364 -249 rmoveto
          -48 callsubr
          -127 -449 rmoveto
          -86 callsubr
          endchar
        </CharString>
        <CharString name="uni020A">
          -422 9 1377 rmoveto
          -47 callsubr
          496 -143 rmoveto
          -97 callsubr
          endchar
        </CharString>
        <CharString name="uni020B">
          -465 -27 976 rmoveto
          -47 callsubr
          133 -200 rmoveto
          -86 callsubr
          endchar
        </CharString>
        <CharString name="uni020C">
          393 598 1377 rmoveto
          -48 callsubr
          364 -249 rmoveto
          -48 callsubr
          62.5 -444 rmoveto
          -67 callsubr
          1.5 -1205 rmoveto
          -66 callsubr
          endchar
        </CharString>
        <CharString name="uni020D">
          -30 388 976 rmoveto
          -48 callsubr
          364 -249 rmoveto
          -48 callsubr
          323.5 -534.5 rmoveto
          -59 callsubr
          56.5 -588.5 rmoveto
          -58 callsubr
          endchar
        </CharString>
        <CharString name="uni020E">
          393 423 1377 rmoveto
          -47 callsubr
          293.5 -195 rmoveto
          -67 callsubr
          1.5 -1205 rmoveto
          -66 callsubr
          endchar
        </CharString>
        <CharString name="uni020F">
          -30 213 976 rmoveto
          -47 callsubr
          554.5 -285.5 rmoveto
          -59 callsubr
          56.5 -588.5 rmoveto
          -58 callsubr
          endchar
        </CharString>
        <CharString name="uni0210">
          240 532 1377 rmoveto
          -48 callsubr
          364 -249 rmoveto
          -48 callsubr
          -487 -1564 rmoveto
          -54 callsubr
          474 580 rmoveto
          -53 callsubr
          endchar
        </CharString>
        <CharString name="uni0211">
          -286 308 976 rmoveto
          -48 callsubr
          364 -249 rmoveto
          -48 callsubr
          209.5 -438 rmoveto
          -52 callsubr
          endchar
        </CharString>
        <CharString name="uni0212">
          240 327 1377 rmoveto
          -47 callsubr
          -226 -1315 rmoveto
          -54 callsubr
          474 580 rmoveto
          -53 callsubr
          endchar
        </CharString>
        <CharString name="uni0213">
          -286 133 976 rmoveto
          -47 callsubr
          440.5 -189 rmoveto
          -52 callsubr
          endchar
        </CharString>
        <CharString name="uni0214">
          387 572 1377 rmoveto
          -48 callsubr
          364 -249 rmoveto
          -48 callsubr
          514 -455 rmoveto
          -65 callsubr
          endchar
        </CharString>
        <CharString name="uni0215">
          68 404 976 rmoveto
          -48 callsubr
          364 -249 rmoveto
          -48 callsubr
          -192 -986 rmoveto
          -57 callsubr
          endchar
        </CharString>
        <CharString name="uni0216">
          387 398 1377 rmoveto
          -47 callsubr
          744 -206 rmoveto
          -65 callsubr
          endchar
        </CharString>
        <CharString name="uni0217">
          68 230 976 rmoveto
          -47 callsubr
          38 -737 rmoveto
          -57 callsubr
          endchar
        </CharString>
        <CharString name="uni0218">
          72 638 -137 rmoveto
          -55 callsubr
          -73 1441 rmoveto
          -50 callsubr
          endchar
        </CharString>
        <CharString name="uni0219">
          -160 512 -128 rmoveto
          -55 callsubr
          299 477.5 rmoveto
          -49 callsubr
          endchar
        </CharString>
        <CharString name="uni021A">
          37 572 -114 rmoveto
          -55 callsubr
          501 1470 rmoveto
          -92 callsubr
          endchar
        </CharString>
        <CharString name="uni021B">
          -487 348 -114 rmoveto
          -55 callsubr
          -311 1017 rmoveto
          125 -531 hlineto
          0 -30.6669921875 1.3330078125 -30 2.6669921875 -29.3330078125 8 -106.666992188 69.6669921875 -53.3330078125 131.333007812 0 rrcurveto
          81 60 -78 hlineto
          -62.6669921875 0 -38.5 12.5 -14.3330078125 25 -14.3330078125 25 -7.1669921875 46.8330078125 0 68.6669921875 rrcurveto
          543 199 55 -199 330 vlineto
          -79 -18 0 -312 -125 0 rlineto
          endchar
        </CharString>
        <CharString name="uni030F">
          -407 258 985 rmoveto
          -48 callsubr
          364 -249 rmoveto
          -48 callsubr
          endchar
        </CharString>
        <CharString name="uni0311">
          -180 131 1080 rmoveto
          87 hlineto
          16 92 70.6666717529 46 125.333328247 0 125.333328247 0 70.6666717529 -46 16 -92 rrcurveto
          79 hlineto
          -13.0818939209 112.504333496 -122.692092896 79.4956665039 -124.226013184 0 -205.333328247 0 -110 -64 -14.6666717529 -128 rrcurveto
          endchar
        </CharString>
        <CharString name="uni0326">
          -622 274 116 rmoveto
          -105 callsubr
          endchar
        </CharString>
        <CharString name="v">
          -2 217 776 rmoveto
          152 60 -398 -60 164 hlineto
          342 -776 90 0 320 776 159 0 0 60 -392 0 0 -60 143 0 -278 -705 rlineto
          endchar
        </CharString>
        <CharString name="w">
          520 217 776 rmoveto
          153 60 -395 -60 164 hlineto
          280 -776 90 0 265 710 263 -710 90 0 279 776 160 0 0 60 -392 0 0 -60 142 0 -238 -711 -263 711 146 0 0 60 rlineto
          -380 -60 143 hlineto
          -261 -711 rlineto
          endchar
        </CharString>
        <CharString name="x">
          148 327 776 rmoveto
          157 60 -384 -60 149 hlineto
          288 -343 -311 -373 -150 0 0 -60 383 0 0 60 -138 0 263 318 269 -318 -164 0 0 -60 395 0 0 60 -151 0 -310 366 rlineto
          291 350 159 0 0 60 -397 0 0 -60 148 0 -247 -295 rlineto
          endchar
        </CharString>
        <CharString name="y">
          -8 139 -206 rmoveto
          -68 vlineto
          44.6666717529 0 41.6666564941 0.66667175293 38.6666717529 1.33332824707 124 4 82 48.3333282471 40 92.6666717529 rrcurveto
          374 903 159 0 0 60 -393 0 0 -60 143 0 -276 -687 -299 687 148 0 0 60 -399 0 0 -60 164 0 320 -718 56 0 rlineto
          -70 -162 rlineto
          -21.3333282471 -48 -31.1666717529 -29 -41 -10 -41 -10 -68.1666717529 -5 -95.3333282471 0 rrcurveto
          endchar
        </CharString>
        <CharString name="yacute">
          -8 489 976 rmoveto
          -77 callsubr
          -409 -1431 rmoveto
          -56 callsubr
          endchar
        </CharString>
        <CharString name="ydieresis">
          -8 676 1082 rmoveto
          -100 -106 100 hlineto
          -242 106 rmoveto
          -100 -106 100 hlineto
          -295 -1182 rmoveto
          -56 callsubr
          endchar
        </CharString>
        <CharString name="yen">
          232 1014 226 rmoveto
          62 -336 145 336 63 -300 vlineto
          403 675 156 0 0 63 -403 0 0 -63 159 0 -390 -663 -397 663 157 0 0 63 -403 0 0 -63 158 0 406 -675 -295 0 rlineto
          -63 331 -145 -331 -62 331 -164 -161 -62 403 62 -160 164 vlineto
          endchar
        </CharString>
        <CharString name="z">
          -125 106 hmoveto
          -81 callsubr
          endchar
        </CharString>
        <CharString name="zcaron">
          -125 337 1249 rmoveto
          -51 callsubr
          -336 -1025 rmoveto
          -81 callsubr
          endchar
        </CharString>
        <CharString name="zero">
          90 561 -23 rmoveto
          79.3333282471 0.66667175293 68 16.3333282471 56.6666717529 32 162.666671753 93.3333282471 81.3333282471 196.666671753 0 300 0 190 -36.8333282471 154 -73.6666717529 118 -73.6666717529 118 -112.5 59 -151.333328247 0 -79.3333282471 0.66667175293 -68 -16.3333435059 -56.6666717529 -33.3333282471 -162.666671753 -94.6666717529 -81.3333282471 -196.666656494 0 -298.666671753 rrcurveto
          -347.175765991 117.550216675 -291.824234009 330.449783325 vhcurveto
          71 vmoveto
          -126 0 -92.1666717529 46.8333282471 -58.3333282471 93.6666717529 -58.3333282471 93.6666717529 -29.1666717529 142.5 0 191.333328247 rrcurveto
          377.333328247 121.333328247 188.666671753 242.666671753 242.666671753 121.333328247 -188.666671753 -377.333328247 -322.94934082 -72.3125305176 -245.05065918 -291.687469482 vhcurveto
          endchar
        </CharString>
</ttFont>
